<svg width="642" height="620" fill="none" xmlns="http://www.w3.org/2000/svg"><g clip-path="url(#a)"><path d="m522.082 99.947 113.194-.175s-5.632-7.32-11.846-8.223c0 0-12.123-35.907-32.323-36.14-18.788-.203-26.283 22.138-26.283 22.138s-8.717-9.999-17.027-5.414c-8.31 4.6-12.996 17.713-12.996 17.713s-9.343 5.05-12.719 10.1zM281.241 120.28l-143.131.218s0-9.155 19.705-10.974c0 0 17.944-40.01 45.435-34.67 17.129 3.32 25.905 26.81 25.905 26.81s12.908-18.513 23.256-14.947c10.347 3.566 16.532 23.244 16.532 23.244s10.682 5.152 12.298 10.319zM496.468 224.972l-97.332.145s9.169-8.558 13.258-8.573c4.09 0 15.95-28.731 31.173-27.522 15.223 1.193 23.329 22.559 23.329 22.559s18.497-5.836 29.557 13.391h.015zM89.968 198.104l-83.23.131s4.133-5.4 8.688-6.07c0 0 8.834-26.431 23.693-26.649 13.811-.189 19.37 16.214 19.37 16.214s6.39-7.38 12.502-4.017c6.112 3.362 9.59 12.997 9.59 12.997s6.884 3.697 9.387 7.394z" fill="#EBEBEB"/><path d="m0 561.956 80.246-.349 80.261-.131L321 561.228l160.507.248 80.247.131 80.246.349-80.246.364-80.247.131-160.507.233-160.493-.233-80.26-.131L0 561.956z" fill="#263238"/><path d="M365.344 620c147.07 0 266.294-11.58 266.294-25.864s-119.224-25.863-266.294-25.863c-147.071 0-266.295 11.579-266.295 25.863C99.05 608.42 218.273 620 365.344 620z" fill="#EBEBEB"/><path d="M161.686 62.702c0 33.78-27.375 61.158-61.152 61.158-33.779 0-62.681-27.392-62.681-61.158C37.853 28.934 66.755 0 100.534 0c33.777 0 61.152 28.92 61.152 62.702z" fill="#FFC727" opacity=".3"/><path d="M99.136 112.653c-27.665 0-50.092-22.429-50.092-50.097 0-27.668 22.441-51.349 50.092-51.349 27.652 0 51.344 23.68 51.344 51.349 0 27.668-23.678 50.097-51.344 50.097z" fill="#FFC727" opacity=".3"/><path d="M100.417 105.288c23.59 0 42.714-19.125 42.714-42.717 0-23.593-19.124-42.718-42.714-42.718S57.703 38.978 57.703 62.57c0 23.592 19.124 42.717 42.714 42.717z" fill="#FFC727"/><path d="m224.003 516.72-6.447 73.079h173.139s-19.326-146.085-19.326-147.381c0-1.295 35.233-45.978 27.491-140.932-9.62-118.199-92.37-158.981-175.716-158.981S81.367 219.499 73.203 274.457L42.699 398.158l39.963 5.589s1.717 83.791 23.198 105.274c21.481 21.482 118.157 7.699 118.157 7.699h-.014z" fill="#fff"/><path opacity=".41" d="m224.003 516.72-6.447 73.079h173.139s-19.326-146.085-19.326-147.381c0-1.295 35.233-45.978 27.491-140.932-9.62-118.199-92.37-158.981-175.716-158.981S81.367 219.499 73.203 274.457L42.699 398.158l39.963 5.589s1.717 83.791 23.198 105.274c21.481 21.482 118.157 7.699 118.157 7.699h-.014z" fill="#27A4FF"/><path d="M374.483 304.789c-3.187 14.672-22.645 21.818-22.645 21.818-1.193 2.649 5.443 54.376 7.277 57.345 1.848 2.955-9.096 10.582-10.537 8.879-1.455-1.703-14.233-35.368-40.836-41.438-.335.452-11.264 14.453-32.323 14.963-21.393.524-36.965-14.788-36.965-14.788s-15.091 22.269-46.73 16.52c-31.639-5.749-38.362-30.711-38.362-30.711s-40.866 12.357-56.583-21.075c-12.021-25.558 1.164-44.202 7.975-51.494 1.965-2.096 3.391-3.261 3.522-3.377 0 0-3.377-31.031 15.79-47.274 19.167-16.257 44.46-14.307 44.46-14.307s10.187-31.394 39.483-37.507c29.31-6.099 47.036 10.872 47.036 10.872s24.842-12.983 55.273-.305c30.416 12.691 29.485 42.907 29.485 42.907s22.121 7.262 29.455 25.339c7.335 18.077-4.657 36.183-4.657 36.183s13.04 12.779 9.853 27.436l.029.014z" fill="#FF7DC3"/><path d="M307.727 351.408c-.334.451-11.264 14.453-32.322 14.962-21.393.524-36.965-14.787-36.965-14.787s-15.092 22.268-46.731 16.519c-31.638-5.749-38.362-30.71-38.362-30.71s-40.865 12.357-56.583-21.075c-12.02-25.558 1.165-44.203 7.975-51.495l3.522-3.376c-.189.509-11.38 31.7 8.485 51.218 20.025 19.677 48.506 6.797 48.506 6.797s3.667 30.841 28.262 37.914c27.316 7.845 45.042-12.924 45.042-12.924s31.944 34.8 69.171 6.972v-.015zM348.578 392.845c-1.455-1.703-14.233-35.368-40.836-41.437 0 0 21.786-12.823 31.886-3.842 10.1 8.965 8.95 45.279 8.95 45.279z" fill="#222221" style="mix-blend-mode:multiply" opacity=".1"/><path d="M319.545 149.447c1.557-.873 4.104-2.125 5.952-1.761 1.426.277 1.79 1.878 1.266 3.071-.771 1.761-2.809 3.362-4.468 4.25-.989.524-2.037.743-3.1.903-1.149.378-2.532.713-3.638.582-.073.014-.16.029-.233.058-.189.058-.32-.058-.364-.189-.072-.029-.145-.029-.218-.058-2.983-1.354 3.668-6.186 4.803-6.827v-.029z" fill="#FFC727"/><path d="M319.545 149.447c1.557-.873 4.104-2.125 5.952-1.761 1.426.277 1.79 1.878 1.266 3.071-.771 1.761-2.809 3.362-4.468 4.25-.989.524-2.037.743-3.1.903-1.149.378-2.532.713-3.638.582-.073.014-.16.029-.233.058-.189.058-.32-.058-.364-.189-.072-.029-.145-.029-.218-.058-2.983-1.354 3.668-6.186 4.803-6.827v-.029z" fill="#222221" style="mix-blend-mode:multiply" opacity=".3"/><path d="M287.659 155.502c-.728 1.95-1.892 5.313-.481 7.263.175.247.437.378.757.32.873-.189 1.514-.859 2.023-1.557 1.819-1.732 3.289-4.323 4.046-6.404.611-1.674-.277-4.177-2.416-4.163-2.183.015-3.318 2.882-3.929 4.541z" fill="#FFC727"/><path d="M287.659 155.502c-.728 1.95-1.892 5.313-.481 7.263.175.247.437.378.757.32.873-.189 1.514-.859 2.023-1.557 1.819-1.732 3.289-4.323 4.046-6.404.611-1.674-.277-4.177-2.416-4.163-2.183.015-3.318 2.882-3.929 4.541z" fill="#222221" style="mix-blend-mode:multiply" opacity=".3"/><path d="M271.505 171.687c.509 1.63 2.284 3.609 3.376 1.15a.477.477 0 0 0 0-.422c1.484-2.897 2.867-6.055 1.455-9.315-.917-2.125-3.158-2.198-4.657-.524-2.139 2.358-1.033 6.418-.189 9.096l.015.015z" fill="#FFC727"/><path d="M271.505 171.687c.509 1.63 2.284 3.609 3.376 1.15a.477.477 0 0 0 0-.422c1.484-2.897 2.867-6.055 1.455-9.315-.917-2.125-3.158-2.198-4.657-.524-2.139 2.358-1.033 6.418-.189 9.096l.015.015z" fill="#222221" style="mix-blend-mode:multiply" opacity=".3"/><path d="M316.358 156.492c-2.518 1.79-7.554 2.838-9.198 3.144-.626.422-10.871 5.501-14.641 8.616-2.503 2.081-4.788 4.425-6.869 6.943 4.293-2.737 8.907-5.08 13.68-6.841 4.395-1.63 9.445-2.3 13.884-.379 0 .161-5.734 2.679-8.193 3.959-2.256 1.194-4.366 2.722-6.709 3.712-4.192 1.805-9.387 1.965-13.841 1.295-.072 0-.101-.044-.16-.073-2.925 3.828-5.443 8.005-7.058 12.547-4.162 11.716-3.929 23.476-2.285 34.509-.131-.204-.291-.379-.451-.583a19.054 19.054 0 0 0-1.513-1.717c-.481-3.449-.772-6.899-.815-10.348 0-.059 0-.102-.044-.16-3.886-2.256-7.102-5.095-8.994-9.286-2.11-4.687-4.511-15.035-4.395-14.963 4.657 2.417 8.615 6.972 10.624 11.775 1.149 2.736 2.168 5.706 2.852 8.733.073-1.645.175-3.275.364-4.905a108.799 108.799 0 0 1-.262-17.407c.175-2.547.509-5.08.961-7.583-.379-1.529-1.31-3.246-1.354-4.876a3.413 3.413 0 0 1 .335-1.688c.538-1.15 1.746-1.98 3.012-1.514a.502.502 0 0 1 .364.495c.029.305.044.626.029.931-.072 2.125-1.048 4.512-1.455 6.521-.64 3.318-.99 6.68-1.15 10.042-.145 3.566 0 7.118.189 10.654a51.897 51.897 0 0 1 2.227-7.917c.932-5.109 2.474-10.174 4.817-14.759a88.974 88.974 0 0 1 4.817-8.281c.233-1.252.641-3.959 1.47-5.895.524-1.281 1.266-2.227 2.271-2.183 1.586.073 1.629 1.179 1.091 2.503-.771 1.907-2.707 4.25-2.983 4.658-2.984 4.483-5.938 9.213-7.859 14.263a43.432 43.432 0 0 0-1.426 4.629 51.178 51.178 0 0 1 15.542-18.514c4.337-3.216 9.213-5.443 14.001-7.845 2.168-1.601 4.206-3.304 6.33-5.05.655-.539 1.557-1.354 2.416-1.398.451-.043.888.131 1.281.626 1.135 1.427.509 2.635-.873 3.624l-.029-.014z" fill="#455A64"/><g style="mix-blend-mode:multiply" opacity=".1" fill="#222221"><path d="M239.502 216.996c3.784-1.747 7.932-2.678 12.123-2.97 2.11-.189 4.235-.043 6.36.175 2.124.248 4.205.83 6.243 1.528 1.994.859 3.958 1.834 5.661 3.159 1.688 1.324 3.304 2.765 4.613 4.453 2.678 3.29 4.73 7.045 5.822 11.062-2.11-3.566-4.555-6.841-7.35-9.679-2.808-2.823-6.068-5.138-9.677-6.52-3.668-1.368-7.626-1.994-11.628-2.125-4.017-.102-8.092.218-12.167.902v.015z"/><path d="M305.37 229.251a35.923 35.923 0 0 0-6.884-3.071c-2.343-.743-4.73-1.238-7.145-1.339-.597-.088-1.208-.03-1.805-.044-.611-.015-1.208-.015-1.819.058l-1.819.131c-.597.117-1.208.218-1.819.306l-.917.131-.903.218-1.833.422c-1.223.306-2.416.742-3.711 1.034 1.018-.801 2.095-1.572 3.23-2.227 1.194-.539 2.343-1.252 3.639-1.587a36.847 36.847 0 0 1 1.921-.582l1.979-.335c.669-.131 1.339-.145 2.008-.174.67 0 1.354-.073 2.023 0 2.707.116 5.37.902 7.757 2.081 2.387 1.179 4.57 2.838 6.112 4.963l-.014.015z"/></g><path d="M362.36 223.472c-4.235 2.417-8.615 4.571-13.127 6.375-1.848.743-4.278 2.053-6.636 2.577-1.354.305-2.663.334-3.813-.146-.553-.073-1.15-.393-1.746-1.062a.834.834 0 0 1-.175-.408c-1.906-1.732-2.489-4.483-3.071-7.044a75.666 75.666 0 0 1-1.964-15.574c-.044-1.907-.393-4.41.48-6.2.538-1.092 1.208-1.194 2.052-1.805 1.994-1.441 2.066-3.318 3.522-5.123.756-.917 1.833-1.82 3.114-1.543 3.056.611 2.736 6.55 2.911 8.718a79.02 79.02 0 0 1 0 13.507c-.335 3.886-.786 8.151-1.849 12.037 4.032-6.201 9.184-11.761 14.757-16.505 2.038-1.732 5.298-4.571 8.238-3.537 1.193.422 1.062 1.324 1.833 1.965 1.645 1.353 3.406-.044 5.123.815 6.374 3.187-7.466 11.716-9.678 12.968l.029-.015z" fill="#FFC727"/><path d="M362.36 223.472c-4.235 2.417-8.615 4.571-13.127 6.375-1.848.743-4.278 2.053-6.636 2.577-1.354.305-2.663.334-3.813-.146-.553-.073-1.15-.393-1.746-1.062a.834.834 0 0 1-.175-.408c-1.906-1.732-2.489-4.483-3.071-7.044a75.666 75.666 0 0 1-1.964-15.574c-.044-1.907-.393-4.41.48-6.2.538-1.092 1.208-1.194 2.052-1.805 1.994-1.441 2.066-3.318 3.522-5.123.756-.917 1.833-1.82 3.114-1.543 3.056.611 2.736 6.55 2.911 8.718a79.02 79.02 0 0 1 0 13.507c-.335 3.886-.786 8.151-1.849 12.037 4.032-6.201 9.184-11.761 14.757-16.505 2.038-1.732 5.298-4.571 8.238-3.537 1.193.422 1.062 1.324 1.833 1.965 1.645 1.353 3.406-.044 5.123.815 6.374 3.187-7.466 11.716-9.678 12.968l.029-.015z" fill="#222221" style="mix-blend-mode:multiply" opacity=".3"/><path d="M357.849 200.636c-4.57 9.228-9.693 18.15-14.102 27.45-.117.219-.51.059-.408-.174 3.435-8.515 8.077-16.462 12.269-24.612 2.139-4.134 3.973-8.151 5.035-12.677.698-3.013.873-5.808 2.969-8.122.334-.364 1.033-.451 1.295.189 1.237 2.969-2.241 7.147-4.089 9.912-.728 2.765-1.63 5.385-2.955 8.049l-.014-.015zM339.759 199.37c-3.304 8.471-4.046 17.684-5.123 26.62-.029.219-.334.219-.32 0 .087-11.905 2.954-25.136 9.198-35.367.553-.903 4.22-6.521 5.705-4.658.786 1.004-.946 2.62-1.514 3.188-1.834 1.906-4.089 3.245-5.734 5.356a.114.114 0 0 1-.073.029c-.829 1.644-1.528 3.304-2.124 4.817l-.015.015zM373.115 202.295c-.655 4.017-2.634 7.918-4.744 11.338-4.657 7.438-11.323 13.347-18.381 18.441-.16.117-.364-.16-.218-.276 6.738-5.415 13.389-11.091 18.031-18.485a40.321 40.321 0 0 0 3.144-6.04c.072-.145.145-.32.203-.495-.029-.029-.058-.058-.043-.116.378-2.635.305-4.847.116-7.467-.087-1.164-.189-2.139.48-3.114.059-.073.146-.117.233-.102 2.11.538 1.426 4.861 1.179 6.331v-.015z" fill="#263238"/><path d="M368.909 230.633c-8.965 4.978-19.69 6.637-29.165 10.48-2.153.873-4.278 1.848-6.388 2.867-.568.277-1.266.699-1.994.946-.451.16-.902.218-1.354.131a1.488 1.488 0 0 1-.538-.189c-.699-.379-.931-.961-1.077-1.688-.277-1.267 0-2.839.175-4.323-.131-1.543-.393-3.086-.539-4.454a105.524 105.524 0 0 0-.786-5.982c-.669-4.221-1.732-8.354-2.794-12.502-.902-3.508-1.674-7.103-1.499-10.742.087-1.936.349-5.531 2.067-6.811 1.542-1.136 2.648-.102 3.26 1.324.582 1.368.553 2.897 1.018 4.265.699 2.081 1.936 2.285 3.304 3.58 1.834 1.761 2.227 4.396 2.11 6.812-.102 1.965-.335 3.929-.597 5.894.583-1.775 1.237-3.507 1.907-5.225 1.208-3.071 2.401-6.884 4.701-9.358.771-.83 1.6-1.456 2.663-1.878 2.357-.946 4.016-1.47 5.777-3.42 1.587-1.747 3.624-4.905 6.389-4.483 2.794.422 2.489 3.216 2.664 5.298.334 3.871 3.507 5.967 2.779 10.173-.582 3.421-2.983 6.39-5.108 9.01-1.659 2.037-3.42 4.046-5.356 5.851a33.253 33.253 0 0 1 8.223-3.566c1.208-.349 2.62-.713 3.886-.379 1.877.495 1.979 1.689 4.366 1.427 1.761-.204 5.661-1.514 6.621 1.004.975 2.62-2.954 4.905-4.729 5.895l.014.043z" fill="#FFC727"/><path d="M368.909 230.633c-8.965 4.978-19.69 6.637-29.165 10.48-2.153.873-4.278 1.848-6.388 2.867-.568.277-1.266.699-1.994.946-.451.16-.902.218-1.354.131a1.488 1.488 0 0 1-.538-.189c-.699-.379-.931-.961-1.077-1.688-.277-1.267 0-2.839.175-4.323-.131-1.543-.393-3.086-.539-4.454a105.524 105.524 0 0 0-.786-5.982c-.669-4.221-1.732-8.354-2.794-12.502-.902-3.508-1.674-7.103-1.499-10.742.087-1.936.349-5.531 2.067-6.811 1.542-1.136 2.648-.102 3.26 1.324.582 1.368.553 2.897 1.018 4.265.699 2.081 1.936 2.285 3.304 3.58 1.834 1.761 2.227 4.396 2.11 6.812-.102 1.965-.335 3.929-.597 5.894.583-1.775 1.237-3.507 1.907-5.225 1.208-3.071 2.401-6.884 4.701-9.358.771-.83 1.6-1.456 2.663-1.878 2.357-.946 4.016-1.47 5.777-3.42 1.587-1.747 3.624-4.905 6.389-4.483 2.794.422 2.489 3.216 2.664 5.298.334 3.871 3.507 5.967 2.779 10.173-.582 3.421-2.983 6.39-5.108 9.01-1.659 2.037-3.42 4.046-5.356 5.851a33.253 33.253 0 0 1 8.223-3.566c1.208-.349 2.62-.713 3.886-.379 1.877.495 1.979 1.689 4.366 1.427 1.761-.204 5.661-1.514 6.621 1.004.975 2.62-2.954 4.905-4.729 5.895l.014.043z" fill="#222221" style="mix-blend-mode:multiply" opacity=".1"/><path d="M327.636 215.744s-.043.116.015.102c.073 0 .043-.117-.015-.102z" fill="#F1D1C5"/><path d="M361.545 230.299c-8.848 5.647-24.216 4.57-30.154 14.176 0 .16 0 .305-.015.466-.451.16-.902.218-1.353.131-1.339-3.348-.699-7.089-.568-10.669.204-5.443.03-10.829-1.135-16.156-.029-.145.175-.189.233-.043 1.281 4.119 1.79 8.325 1.877 12.619.102 4.322-1.076 9.591.19 13.841.029-.145.072-.306.087-.437-.029-4.905 1.979-9.839 3.988-14.205 2.59-5.633 5.879-10.887 8.95-16.258.116-.218.422 0 .32.219-2.678 5.283-5.457 10.552-7.961 15.923-1.47 3.129-3.012 6.607-3.914 10.159 4.962-11.324 18.235-17.873 22.324-29.721.102-.262.51-.116.422.146-4.191 12.589-17.667 19.576-22.717 31.583.771-.975 1.731-1.819 2.794-2.547a30.163 30.163 0 0 1 7.291-5.341c4.366-2.285 9.139-3.406 13.36-6.011.16-.102.32.16.189.276-3.245 2.78-7.495 3.828-11.322 5.56a35.921 35.921 0 0 0-6.506 3.813 36.743 36.743 0 0 1 3.813-1.542c6.52-2.315 13.287-3.392 19.603-6.346.262-.117.437.233.204.378v-.014zM327.025 208.918c-.335 1.441-.087 2.62.233 4.017.029.116.218.087.189-.044-.233-1.237-.102-2.649-.058-3.9 0-.204-.32-.292-.379-.073h.015zM355.215 206.167c-.161.728-.131 1.499-.277 2.241-.044.233.306.277.393.073.291-.669.524-1.572.32-2.3-.058-.189-.378-.261-.436-.029v.015zM364.994 227.562c-.349.219-.771.408-1.077.67-.101.087-.043.291.102.291.466 0 .903-.262 1.252-.568.189-.174-.029-.538-.262-.393h-.015z" fill="#fff"/><path d="M326.952 239.192c.291 3.405 1.092 7.059-.611 10.406-.146.291.131.553.349.335 1.688-1.805 12.72-6.128 12.225-7.991-.306-1.135-3.362.277-3.798-1.295-.175-.67.393-2.009.567-2.707.233-.903.437-1.82.582-2.736.131-.845.117-1.936-.625-2.256-.874-.379-1.805.727-2.402 1.455-.495.597-.931 1.266-1.382 1.907-.495.713-1.208 2.037-1.834.873-.553-1.004-.742-2.227-1.601-2.984-1.95-1.717-1.557 3.974-1.47 4.993z" fill="#455A64"/><path d="M322.921 284.195a31.587 31.587 0 0 0-1.426-2.911 24.622 24.622 0 0 0-1.397-2.285c.043-.626.087-1.267.145-1.878.335-3.522.786-7.03 1.397-10.508.16-.976.335-1.951.539-2.941.422-2.255.917-4.511 1.484-6.738.844-3.377 1.863-6.55 3.464-9.475a23.26 23.26 0 0 1 1.863-2.955l.596-.771c.219-.248.422-.524.655-.786.175-.204.364-.393.553-.597l.088-.087c.218-.233.582.072.378.334a27.96 27.96 0 0 0-.524.67c-.116.16-.233.32-.335.48-.189.277-.363.553-.553.83-.072.131-.145.247-.203.378-.83 1.354-1.485 2.795-2.038 4.279-1.979 5.356-2.503 11.411-3.202 16.913a173.575 173.575 0 0 0-.844 8.165 5.441 5.441 0 0 0-.058.684 176.288 176.288 0 0 0-.553 9.199h-.029z" fill="#455A64"/><path d="M322.179 267.064s.407-11.804-1.848-17.786c-2.256-5.982-9.373-13.696-9.373-13.696s-4.977 18.106 11.221 31.482zM323.212 275.083s4.279-11.003 8.703-15.617c4.424-4.614 14.015-8.893 14.015-8.893s-2.562 18.601-22.718 24.51z" fill="#455A64"/><g style="mix-blend-mode:multiply" opacity=".1" fill="#222221"><path d="M282.114 265.972c4.788-1.222 9.852-1.295 14.8-.611 4.949.742 9.824 2.387 14.146 5.05 2.11 1.383 4.206 2.897 5.952 4.76 1.718 1.877 3.304 3.886 4.512 6.113 2.416 4.424 3.886 9.344 3.944 14.278a42.442 42.442 0 0 0-5.705-13.216c-2.649-3.959-6.04-7.248-10.085-9.693-1.005-.626-2.038-1.179-3.086-1.732-1.077-.481-2.124-1.034-3.245-1.427-2.183-.946-4.497-1.513-6.811-2.125-4.672-1.033-9.503-1.542-14.422-1.411v.014z"/><path d="M352.988 280.265a54.677 54.677 0 0 0-7.917-1.31 33.317 33.317 0 0 0-7.728.276c-1.28.146-2.488.539-3.74.83-1.193.437-2.43.815-3.58 1.426-2.401 1.034-4.512 2.606-6.825 4.148 1.499-2.285 3.39-4.453 5.821-5.938 1.135-.873 2.488-1.368 3.769-1.994 1.354-.436 2.722-.902 4.148-1.077 2.823-.451 5.719-.32 8.455.306 2.736.626 5.37 1.688 7.597 3.333z"/></g><path d="M112.86 201.466c5.559 4.541 12.647 6.36 19.385 8.383a125.56 125.56 0 0 1 5.588 1.82c1.281.451 2.707.917 4.075.64 2.416-.495 2.649-2.663 2.678-4.759.058-.655.073-1.339.044-2.009 0-.16.029-.306.043-.451 0-.117-.014-.189-.072-.248-.044-.815-.131-1.601-.19-2.372-.334-4.337-.727-8.66-1.106-12.997-.305-3.493-.436-7.088-1.339-10.48-.32-1.208-.669-2.838-1.877-3.449-.684-.349-1.484-.349-2.183-.626-.64-.262-1.179-.699-1.659-1.193-1.193-1.252-3.318-5.036-5.53-3.828-1.135.626-1.383 2.081-1.703 3.202-.466 1.644-1.63 2.561-2.634 3.857-1.674 2.168-1.252 4.992-.335 7.379 1.208 3.158 3.071 6.069 5.05 8.791 2.038 2.824 4.25 5.502 6.302 8.311 1.135 1.557 2.212 3.143 3.172 4.803.466.815.917 1.644 1.325 2.474.276.568.611 1.179.742 1.819-2.372-3.158-5.254-5.865-8.004-8.674-2.926-2.969-5.487-6.361-8.82-8.893-2.503-1.907-5.442-3.202-8.63-3.217-1.819-.014-3.478-.029-5.239-.626-1.528-.524-3.012-1.266-4.628-1.499-3.507-.495-1.746 3.639-1.004 5.313 1.47 3.318 3.755 6.258 6.564 8.543l-.015-.014z" fill="#FFC727"/><path d="M112.86 201.466c5.559 4.541 12.647 6.36 19.385 8.383a125.56 125.56 0 0 1 5.588 1.82c1.281.451 2.707.917 4.075.64 2.416-.495 2.649-2.663 2.678-4.759.058-.655.073-1.339.044-2.009 0-.16.029-.306.043-.451 0-.117-.014-.189-.072-.248-.044-.815-.131-1.601-.19-2.372-.334-4.337-.727-8.66-1.106-12.997-.305-3.493-.436-7.088-1.339-10.48-.32-1.208-.669-2.838-1.877-3.449-.684-.349-1.484-.349-2.183-.626-.64-.262-1.179-.699-1.659-1.193-1.193-1.252-3.318-5.036-5.53-3.828-1.135.626-1.383 2.081-1.703 3.202-.466 1.644-1.63 2.561-2.634 3.857-1.674 2.168-1.252 4.992-.335 7.379 1.208 3.158 3.071 6.069 5.05 8.791 2.038 2.824 4.25 5.502 6.302 8.311 1.135 1.557 2.212 3.143 3.172 4.803.466.815.917 1.644 1.325 2.474.276.568.611 1.179.742 1.819-2.372-3.158-5.254-5.865-8.004-8.674-2.926-2.969-5.487-6.361-8.82-8.893-2.503-1.907-5.442-3.202-8.63-3.217-1.819-.014-3.478-.029-5.239-.626-1.528-.524-3.012-1.266-4.628-1.499-3.507-.495-1.746 3.639-1.004 5.313 1.47 3.318 3.755 6.258 6.564 8.543l-.015-.014z" fill="#222221" style="mix-blend-mode:multiply" opacity=".3"/><path d="M140.7 206.997c.713-4.774.684-9.577-.014-14.395-1.354-9.184-5.05-17.931-9.533-26.024-.96-1.746-2.008-3.507-3.434-4.89-.611-.597-1.979-1.237-1.936.189.029 1.325 1.281 2.562 2.212 3.362 1.208 1.034 2.547 1.892 3.537 3.129a102.24 102.24 0 0 1 2.212 4.338c1.775 3.682 3.304 7.466 4.526 11.367 2.314 7.379 3.405 15.282 2.328 22.909 0 .058.088.073.102 0v.015zM139.682 209.122c-4.774-.699-9.373-2.111-13.768-4.178-8.411-3.944-15.703-10.013-22.164-16.636-1.397-1.426-2.78-2.925-3.697-4.701-.393-.757-.611-2.256.742-1.79 1.267.422 2.082 1.965 2.576 3.086.641 1.455 1.077 2.983 1.965 4.293a110.39 110.39 0 0 0 3.522 3.377c3.012 2.751 6.2 5.327 9.576 7.627 6.403 4.337 13.651 7.67 21.262 8.849.058 0 .044.116-.014.102v-.029z" fill="#263238"/><path d="M115.858 177.232a239.404 239.404 0 0 0 7.771 9.796c5.327 6.389 11.032 12.327 16.984 18.12.058.044.116-.044.073-.087-5.821-5.808-11.352-12.037-16.62-18.368a243.61 243.61 0 0 1-7.64-9.635c-.51-.67-1.005-1.354-1.499-2.038-.83-2.183-1.441-4.192-2.445-6.288-.481-.989-1.674-3.304-2.795-2.474-1.484 1.092 3.682 7.67 6.186 10.974h-.015z" fill="#263238"/><path d="M104.623 201.146c1.47 2.445 3.696 4.555 5.894 6.302 4.89 3.886 10.784 6.316 16.678 7.932 5.807 1.587 11.846 2.3 17.726 1.295.073 0 .131-.029.204-.029.043.029.116 0 .145-.029.102-.014.422-.102.451-.131.015 0 .568-.102.437-.174-.015-.03.32-.408.8-.976.873-1.018 2.212-2.634 2.824-3.798.916-1.747 1.426-3.683 1.702-5.648.655-4.497.058-9.096.553-13.608.437-3.915 1.921-7.671 1.776-11.673-.029-.873-.131-2.3-1.354-2.067-1.571.306-1.775 2.474-2.794 3.377-.087.218-.262.306-.538.218-.35.175-.568.058-.67-.32-.131-.146-.276-.568-.349-.728-.233-.524-.422-1.077-.611-1.615-.306-.961-.553-1.951-.815-2.926-.422-1.572-.801-3.726-1.95-4.963-.844-.902-1.98-.728-2.533.32-.742 1.412-.582 3.45-.596 5.022-.015 1.179-.248 2.896-1.849 2.561-.654-.145-1.251-.524-1.921-.655-1.251-.247-2.328.51-2.808 1.645-.684 1.645-.117 3.77.247 5.458.466 2.169 1.106 4.308 1.848 6.404 1.412 3.988 4.657 11.527 6.302 15.413.902 2.125-9.227-19.939-13.156-24.408-.815-.917-2.227-1.382-3.493-1.484-.844-.059-1.645.334-2.489.32-.858-.015-1.688-.364-2.474-.728-2.095-.931-5.661-2.038-6.258 1.208-.276 1.499.408 2.926.437 4.425.029 1.455-.859 2.634-1.353 3.93-1.223 3.1 1.688 5.807 3.711 7.903 2.503 2.576 5.282 4.876 8.179 6.957 1.804 1.295 8.717 5.836 10.609 6.986-2.416-1.222-9.838-5.836-12.181-7.19a111.568 111.568 0 0 1-4.541-2.78c-1.353-.873-2.648-1.921-4.075-2.692-1.266-.685-2.299-.685-3.682-.67-1.688.029-3.434-.669-5.108-.946-.902-.146-2.576-.713-3.231.189-.494.684-.102 1.703.306 2.358v.015z" fill="#FFC727"/><path d="M104.623 201.146c1.47 2.445 3.696 4.555 5.894 6.302 4.89 3.886 10.784 6.316 16.678 7.932 5.807 1.587 11.846 2.3 17.726 1.295.073 0 .131-.029.204-.029.043.029.116 0 .145-.029.102-.014.422-.102.451-.131.015 0 .568-.102.437-.174-.015-.03.32-.408.8-.976.873-1.018 2.212-2.634 2.824-3.798.916-1.747 1.426-3.683 1.702-5.648.655-4.497.058-9.096.553-13.608.437-3.915 1.921-7.671 1.776-11.673-.029-.873-.131-2.3-1.354-2.067-1.571.306-1.775 2.474-2.794 3.377-.087.218-.262.306-.538.218-.35.175-.568.058-.67-.32-.131-.146-.276-.568-.349-.728-.233-.524-.422-1.077-.611-1.615-.306-.961-.553-1.951-.815-2.926-.422-1.572-.801-3.726-1.95-4.963-.844-.902-1.98-.728-2.533.32-.742 1.412-.582 3.45-.596 5.022-.015 1.179-.248 2.896-1.849 2.561-.654-.145-1.251-.524-1.921-.655-1.251-.247-2.328.51-2.808 1.645-.684 1.645-.117 3.77.247 5.458.466 2.169 1.106 4.308 1.848 6.404 1.412 3.988 4.657 11.527 6.302 15.413.902 2.125-9.227-19.939-13.156-24.408-.815-.917-2.227-1.382-3.493-1.484-.844-.059-1.645.334-2.489.32-.858-.015-1.688-.364-2.474-.728-2.095-.931-5.661-2.038-6.258 1.208-.276 1.499.408 2.926.437 4.425.029 1.455-.859 2.634-1.353 3.93-1.223 3.1 1.688 5.807 3.711 7.903 2.503 2.576 5.282 4.876 8.179 6.957 1.804 1.295 8.717 5.836 10.609 6.986-2.416-1.222-9.838-5.836-12.181-7.19a111.568 111.568 0 0 1-4.541-2.78c-1.353-.873-2.648-1.921-4.075-2.692-1.266-.685-2.299-.685-3.682-.67-1.688.029-3.434-.669-5.108-.946-.902-.146-2.576-.713-3.231.189-.494.684-.102 1.703.306 2.358v.015z" fill="#222221" style="mix-blend-mode:multiply" opacity=".09"/><path d="M115.989 208.234c8.717 5.443 18.41 8.019 28.466 8.485.058 0 .102-.029.117-.058.116 0 .247 0 .363.014.073 0 .131-.029.204-.029.044.029.117 0 .146-.029.101-.014.422-.102.451-.131.014 0 .567-.102.436-.174-.014-.03.321-.408.801-.976 1.717-3.449 3.012-7.379 2.823-11.25-.131-2.518-.684-5.036-.902-7.554-.233-2.576-.306-5.182-.16-7.743 0-.029-.044-.029-.044 0-.189 2.503-.276 5.006-.175 7.524.102 2.402.495 4.76.684 7.161.335 4.469-1.353 8.195-2.896 12.139.786-3.493 1.063-7.132.728-10.727-.407-4.337-1.615-8.616-2.649-12.837-.029-.117-.189-.073-.16.044.801 4.235 1.921 8.485 2.372 12.779a35.58 35.58 0 0 1-.611 11.047c-3.493-4.236-6.287-8.952-9.328-13.507-2.955-4.41-6.186-8.587-9.751-12.517-.058-.058-.146.029-.102.087a117.305 117.305 0 0 1 9.911 13.376c2.721 4.279 5.355 8.645 8.703 12.473-3.537-2.532-7.03-5.065-9.998-8.31-3.115-3.406-6.127-6.958-9.082-10.494-.029-.029-.072 0-.058.043 2.94 3.77 5.851 7.583 9.052 11.12 2.998 3.319 6.622 5.851 10.348 8.223-9.62-.349-18.498-5.589-26.575-10.668-.058-.029-.101.044-.043.087 6.33 4.032 12.792 8.194 19.952 9.985-3.26-.408-6.476-.917-9.692-1.878a58.597 58.597 0 0 1-13.258-5.793c-.073-.043-.131.059-.058.102l-.015-.014z" fill="#fff"/><path d="M144.062 181.439c.015-.131.218-.117.204 0-.32 2.576.014 5.094-.029 7.67 0 .16-.248.189-.277.029-.582-2.489-.203-5.225.102-7.699zM121.767 191.758c.625.538 1.353 1.077 1.877 1.717.073.102-.029.248-.131.175-.684-.48-1.266-1.194-1.848-1.79-.073-.073.029-.175.116-.117l-.014.015zM116.149 204.027l1.019.684c.131.088 0 .321-.131.219l-.975-.772c-.073-.058 0-.189.073-.131h.014z" fill="#fff"/><path d="M141.195 218.495c3.042 1.12 6.593 1.863 8.397 4.846.16.262.553.102.481-.189-.51-2.328 2.488-14.525.625-14.816-1.135-.175-1.79 3.289-3.376 3.042-.669-.102-1.455-1.194-1.936-1.645a19.28 19.28 0 0 0-1.95-1.674c-.64-.466-1.557-.902-2.284-.335-.845.67-.481 2.009-.219 2.868.218.713.51 1.397.772 2.081.291.757.989 1.965-.364 2.096-1.179.116-2.329-.219-3.479.291-2.619 1.135 2.402 3.1 3.319 3.449l.014-.014z" fill="#455A64"/><path d="M173.329 258.695s-.073-.029-.117-.029l-2.081-.306a15.238 15.238 0 0 0-1.15-.058 62.33 62.33 0 0 0-1.775-4.061 75.95 75.95 0 0 0-1.077-2.183 92.474 92.474 0 0 0-3.958-6.928c-4.57-7.292-9.416-14.235-13.419-21.701-1.266-2.358-2.459-4.774-3.521-7.263a17.26 17.26 0 0 0-.219-.509c-.291-.714-.596-1.441-.873-2.184-.073-.174.218-.291.291-.116.218.538.466 1.077.713 1.601.073.146.131.291.204.422 0 .029 0 .044.029.058.058.131.117.262.189.379 1.034 2.168 2.212 4.25 3.479 6.273 3.463 5.589 7.611 10.814 11.555 16.155.291.393.582.786.858 1.194 2.518 3.464 4.934 6.986 6.971 10.727a65.535 65.535 0 0 1 3.915 8.529h-.014z" fill="#455A64"/><path d="M169.428 254.066s-8.688-7.99-14.698-10.188c-6.011-2.183-16.489-1.819-16.489-1.819s10.478 15.573 31.187 12.007zM161.861 240.094s-2.052-11.629-.655-17.873c1.397-6.23 7.364-14.875 7.364-14.875s7.466 17.233-6.724 32.733l.015.015z" fill="#455A64"/><path d="M169.778 166.505c1.862-.451 3.099 3.464 3.434 4.673.888 3.274.262 6.535-1.091 9.547a2.39 2.39 0 0 1-.291.641c0 .029-.029.058-.044.087 0 .029-.044.029-.058.044a1.165 1.165 0 0 1-.189.189c-.175.131-.437.233-.655.146-2.387-1.048-2.271-4.498-2.242-6.608.015-1.354-1.062-8.165 1.136-8.704v-.015z" fill="#FFC727"/><path d="M169.778 166.505c1.862-.451 3.099 3.464 3.434 4.673.888 3.274.262 6.535-1.091 9.547a2.39 2.39 0 0 1-.291.641c0 .029-.029.058-.044.087 0 .029-.044.029-.058.044a1.165 1.165 0 0 1-.189.189c-.175.131-.437.233-.655.146-2.387-1.048-2.271-4.498-2.242-6.608.015-1.354-1.062-8.165 1.136-8.704v-.015z" fill="#222221" style="mix-blend-mode:multiply" opacity=".2"/><path d="M157.349 187.304c-1.149 3.188.975 6.259 2.969 8.544.757.858 2.998 3.347 3.959 2.066.145.03.305-.029.349-.203.378-1.354.043-2.518-.422-3.799-.742-2.009-1.485-4.09-2.416-6.04-.961-2.038-3.449-3.362-4.453-.568h.014z" fill="#FFC727"/><path d="M157.349 187.304c-1.149 3.188.975 6.259 2.969 8.544.757.858 2.998 3.347 3.959 2.066.145.03.305-.029.349-.203.378-1.354.043-2.518-.422-3.799-.742-2.009-1.485-4.09-2.416-6.04-.961-2.038-3.449-3.362-4.453-.568h.014z" fill="#222221" style="mix-blend-mode:multiply" opacity=".2"/><path d="M195.42 220.94c-.96 4.687-4.045 8.835-7.727 11.877a62.394 62.394 0 0 1-1.194 14.642c-.582.422-1.12.887-1.659 1.368.262-1.252.495-2.504.67-3.77 0-.029 0-.073-.029-.102-7.874-4.148-11.41-12.168-14.35-20.275 0 0-.029-.029-.044-.029.219 0 12.458 5.109 14.714 18.223.698-6.171.509-12.459-.481-18.63-3.318-9.694-11.7-16.607-19.705-22.982-1.338-1.077-2.867-2.169-3.623-3.741-.059-.101-.102-.218-.146-.32-.32-.771-.698-2.445.335-2.954 1.077-.568 1.863.829 2.372 1.542.073.102.16.219.218.335 1.441 2.009 2.751 4.119 4.032 6.23 3.027 2.299 5.937 4.744 8.586 7.466 2.751 2.809 5.181 6.011 6.956 9.49-.131-.51-.232-1.048-.363-1.572-1.951-7.496-5.05-14.613-8.761-21.381-1.616-2.94-3.275-5.865-4.41-9.024-.655-1.863-1.499-4.585-1.383-6.87.029-.596.117-1.164.291-1.673.393-1.208 1.47-1.762 2.285-.553.291.422.437 1.004.51 1.63.116 1.12 0 2.372.029 3.216.116 2.14.218 4.294.305 6.433.684 1.412 1.456 2.795 2.227 4.148 4.206 7.321 7.888 14.73 10.144 22.924a73.225 73.225 0 0 1 2.052 10.596 52.345 52.345 0 0 1 1.615-8.34c1.121-4.061 5.894-11.134 5.938-11.163.131-.102 2.11 6.098.64 13.303l-.044-.044z" fill="#455A64"/><g style="mix-blend-mode:multiply" opacity=".1" fill="#222221"><path d="M140.977 281.255c.859-5.298 3.798-10.203 7.684-14.031 1.906-1.98 4.22-3.508 6.563-4.934 1.208-.641 2.416-1.31 3.697-1.79l1.892-.786 2.008-.597c2.678-.786 5.53-.961 8.31-.757l2.081.291c.684.102 1.354.335 2.023.495l1.004.262.975.364c.641.262 1.296.48 1.907.8 4.962 2.387 9.168 6.07 12.137 10.494-3.813-3.697-8.193-6.724-12.952-8.587-4.774-1.79-9.969-2.271-14.786-.83-4.861 1.354-9.562 3.785-13.462 7.074-3.886 3.333-7.16 7.539-9.067 12.517l-.014.015z"/><path d="M215.693 244.562a53.825 53.825 0 0 0-11.308-.451c-3.711.277-7.349.975-10.74 2.329-3.406 1.31-6.505 3.304-9.256 5.763-2.707 2.504-5.05 5.473-7.189 8.69a28.035 28.035 0 0 1 5.719-10.145 26.839 26.839 0 0 1 4.468-3.944 30.147 30.147 0 0 1 5.283-2.824c3.74-1.441 7.742-2.067 11.672-1.936 3.914.131 7.815.903 11.351 2.504v.014zM127.457 262.29c1.659-1.266 3.667-1.994 5.734-2.358 2.081-.349 4.279-.277 6.36.306 2.081.567 4.06 1.601 5.603 3.041.844.655 1.47 1.529 2.11 2.344.597.859 1.062 1.805 1.47 2.736-.888-.582-1.587-1.266-2.402-1.819-.815-.539-1.557-1.15-2.401-1.587-1.601-1.004-3.318-1.659-5.079-2.154a23.688 23.688 0 0 0-5.501-.815c-1.906-.044-3.842.073-5.894.306z"/></g><g style="mix-blend-mode:multiply" opacity=".1" fill="#222221"><path d="M217.076 310.335c2.983-1.892 6.403-3.1 9.896-3.814 3.507-.713 7.145-.815 10.725-.378 1.805.189 3.551.684 5.298 1.121 1.688.655 3.42 1.164 4.962 2.11 3.231 1.587 5.982 3.974 8.339 6.564-3.07-1.746-5.981-3.536-9.197-4.686-1.557-.67-3.187-1.092-4.788-1.572-1.645-.335-3.26-.786-4.948-.903-3.318-.465-6.709-.494-10.1-.218a62.53 62.53 0 0 0-10.187 1.776z"/><path d="M243.955 330.58c1.892-5.589 5.589-10.61 10.319-14.351 4.686-3.857 10.565-6.127 16.517-7.088 5.967-.96 12.298-.291 17.857 2.125 2.794 1.179 5.327 2.911 7.568 4.891 2.212 2.008 4.177 4.308 5.545 6.928a31.431 31.431 0 0 0-6.36-5.924c-2.343-1.659-4.861-3.042-7.539-3.988-2.677-.888-5.428-1.616-8.251-1.761-.699-.088-1.397-.102-2.111-.102h-2.11c-1.411.131-2.823.189-4.22.422l-2.096.364c-.349.058-.698.116-1.048.189l-1.018.291-2.038.568c-.669.218-1.324.509-1.979.742-1.354.437-2.591 1.135-3.871 1.732-1.208.742-2.489 1.383-3.624 2.227-4.686 3.231-8.659 7.598-11.541 12.706v.029z"/><path d="M301.775 323.085a31.405 31.405 0 0 0-6.36-5.924c-2.343-1.659-4.86-3.042-7.538-3.974-2.678-.887-5.414-1.63-8.252-1.761-.698-.087-1.411-.102-2.11-.102h-2.11c-1.397.146-2.824.19-4.221.423l-2.095.363c-.35.073-.699.117-1.048.204l-1.019.291-2.052.568c-.655.218-1.31.509-1.979.742-1.15.364-2.227.932-3.318 1.47-.189.073-.364.175-.553.248-.437.262-.873.509-1.325.771-.785.466-1.571.932-2.299 1.47a38.446 38.446 0 0 0-11.541 12.706c1.878-5.574 5.574-10.61 10.304-14.336a27.024 27.024 0 0 1 2.663-1.95 43.829 43.829 0 0 1 1.776-1.063c3.725-2.081 7.888-3.406 12.093-4.09 5.967-.96 12.298-.305 17.857 2.125 2.809 1.194 5.327 2.911 7.568 4.891 2.227 1.994 4.177 4.308 5.545 6.928h.014z"/></g><path d="M222.97 270.528c3.245 2.692 6.665 5.196 10.231 7.423 1.455.917 3.347 2.387 5.268 3.187 1.106.466 2.226.684 3.26.451.48.029 1.048-.16 1.644-.64a.746.746 0 0 0 .219-.32c1.877-1.179 2.794-3.45 3.681-5.546a65.907 65.907 0 0 0 4.017-12.968c.32-1.63 1.004-3.697.524-5.356-.306-1.004-.844-1.193-1.484-1.848-1.485-1.529-1.266-3.144-2.227-4.905-.495-.888-1.295-1.82-2.43-1.791-2.693.059-3.319 5.167-3.799 6.987a68.596 68.596 0 0 0-2.037 11.512c-.306 3.363-.553 7.059-.233 10.538-2.503-5.895-6.054-11.411-10.085-16.287-1.47-1.775-3.828-4.686-6.477-4.25-1.077.175-1.106.975-1.848 1.398-1.601.902-2.896-.554-4.482-.073-5.909 1.761 4.599 11.105 6.287 12.517l-.029-.029z" fill="#FFC727"/><path d="M222.97 270.528c3.245 2.692 6.665 5.196 10.231 7.423 1.455.917 3.347 2.387 5.268 3.187 1.106.466 2.226.684 3.26.451.48.029 1.048-.16 1.644-.64a.746.746 0 0 0 .219-.32c1.877-1.179 2.794-3.45 3.681-5.546a65.907 65.907 0 0 0 4.017-12.968c.32-1.63 1.004-3.697.524-5.356-.306-1.004-.844-1.193-1.484-1.848-1.485-1.529-1.266-3.144-2.227-4.905-.495-.888-1.295-1.82-2.43-1.791-2.693.059-3.319 5.167-3.799 6.987a68.596 68.596 0 0 0-2.037 11.512c-.306 3.363-.553 7.059-.233 10.538-2.503-5.895-6.054-11.411-10.085-16.287-1.47-1.775-3.828-4.686-6.477-4.25-1.077.175-1.106.975-1.848 1.398-1.601.902-2.896-.554-4.482-.073-5.909 1.761 4.599 11.105 6.287 12.517l-.029-.029z" fill="#222221" style="mix-blend-mode:multiply" opacity=".3"/><path d="M230.261 251.752c2.503 8.544 5.515 16.927 7.888 25.515.058.203.422.116.378-.088-1.645-7.772-4.395-15.239-6.738-22.822-1.193-3.842-2.154-7.539-2.372-11.571-.146-2.663.131-5.079-1.31-7.379-.233-.364-.801-.538-1.135-.029-1.499 2.343.829 6.419 1.994 9.068.203 2.459.567 4.846 1.295 7.292v.014zM245.862 253.397c1.542 7.714.771 15.675.349 23.462 0 .189.247.233.277.044 1.717-10.16 1.28-21.861-2.518-31.526-.335-.858-2.62-6.2-4.148-4.832-.829.742.422 2.372.815 2.955 1.281 1.906 2.998 3.376 4.09 5.429.014.014.029.029.058.043.451 1.528.8 3.042 1.091 4.425h-.014zM216.988 250.864c-.043 3.523 1.048 7.147 2.343 10.378 2.853 7.03 7.641 13.084 12.88 18.484.116.131.335-.087.233-.203-4.919-5.633-9.736-11.47-12.574-18.47a34.496 34.496 0 0 1-1.761-5.618c-.029-.131-.073-.292-.102-.452.029-.014.058-.043.058-.102.073-2.299.48-4.177 1.019-6.389.247-.975.597-2.664-.117-2.838-1.877.145-1.95 3.915-1.964 5.21h-.015z" fill="#263238"/><path d="M216.304 275.651c6.884 5.589 15.776 8.616 23.271 13.332 1.703 1.063 3.376 2.227 5.006 3.406.451.32.975.786 1.557 1.106.364.204.743.32 1.121.32.16 0 .32-.029.48-.073.64-.218.932-.684 1.164-1.28.437-1.034.437-2.416.495-3.712.349-1.295.801-2.576 1.135-3.711a105.002 105.002 0 0 1 1.572-4.978c1.208-3.508 2.736-6.855 4.264-10.232 1.295-2.853 2.503-5.807 2.896-8.936.219-1.66.539-4.774-.727-6.113-1.15-1.194-2.242-.481-2.984.64-.698 1.077-.917 2.372-1.499 3.479-.917 1.659-1.994 1.644-3.347 2.547-1.819 1.222-2.561 3.42-2.823 5.487-.204 1.688-.306 3.406-.379 5.108a85.148 85.148 0 0 0-.844-4.744c-.567-2.795-1.018-6.23-2.59-8.675-.524-.83-1.15-1.485-1.994-1.994-1.863-1.164-3.202-1.848-4.41-3.784-1.091-1.732-2.343-4.716-4.773-4.789-2.445-.058-2.605 2.373-3.071 4.119-.873 3.246-3.886 4.556-3.915 8.253-.029 3.013 1.587 5.894 2.998 8.456 1.106 1.994 2.3 3.959 3.682 5.793-1.95-1.718-4.147-3.144-6.476-4.279-.975-.481-2.125-1.005-3.26-.903-1.673.146-1.95 1.136-3.944.553-1.47-.436-4.599-2.139-5.792-.145-1.237 2.096 1.79 4.628 3.144 5.734l.043.015z" fill="#FFC727"/><path d="M216.304 275.651c6.884 5.589 15.776 8.616 23.271 13.332 1.703 1.063 3.376 2.227 5.006 3.406.451.32.975.786 1.557 1.106.364.204.743.32 1.121.32.16 0 .32-.029.48-.073.64-.218.932-.684 1.164-1.28.437-1.034.437-2.416.495-3.712.349-1.295.801-2.576 1.135-3.711a105.002 105.002 0 0 1 1.572-4.978c1.208-3.508 2.736-6.855 4.264-10.232 1.295-2.853 2.503-5.807 2.896-8.936.219-1.66.539-4.774-.727-6.113-1.15-1.194-2.242-.481-2.984.64-.698 1.077-.917 2.372-1.499 3.479-.917 1.659-1.994 1.644-3.347 2.547-1.819 1.222-2.561 3.42-2.823 5.487-.204 1.688-.306 3.406-.379 5.108a85.148 85.148 0 0 0-.844-4.744c-.567-2.795-1.018-6.23-2.59-8.675-.524-.83-1.15-1.485-1.994-1.994-1.863-1.164-3.202-1.848-4.41-3.784-1.091-1.732-2.343-4.716-4.773-4.789-2.445-.058-2.605 2.373-3.071 4.119-.873 3.246-3.886 4.556-3.915 8.253-.029 3.013 1.587 5.894 2.998 8.456 1.106 1.994 2.3 3.959 3.682 5.793-1.95-1.718-4.147-3.144-6.476-4.279-.975-.481-2.125-1.005-3.26-.903-1.673.146-1.95 1.136-3.944.553-1.47-.436-4.599-2.139-5.792-.145-1.237 2.096 1.79 4.628 3.144 5.734l.043.015z" fill="#595D6D" style="mix-blend-mode:multiply" opacity=".1"/><path d="M253.735 269.189s.014.1-.029.086c-.043-.014-.029-.101.029-.086z" fill="#F1D1C5"/><path d="M222.635 276.481c6.68 6.142 19.952 7.539 23.562 16.621-.015.131-.03.262-.059.408.364.203.743.32 1.121.32 1.644-2.649 1.659-5.939 2.081-9.01.655-4.672 1.601-9.227 3.405-13.594.044-.116-.131-.189-.189-.072-1.717 3.318-2.779 6.826-3.507 10.464-.742 3.668-.524 8.326-2.256 11.775V293c.772-4.177-.204-8.689-1.251-12.706-1.354-5.182-3.362-10.159-5.181-15.195-.073-.204-.364-.058-.306.145 1.484 4.905 3.056 9.81 4.395 14.759.786 2.896 1.572 6.084 1.805 9.242-2.518-10.392-12.836-17.975-14.539-28.687-.044-.233-.422-.175-.378.058 1.673 11.367 12.108 19.343 14.597 30.346-.51-.946-1.208-1.804-1.994-2.59-1.499-2.14-3.304-4.017-5.399-5.662-3.377-2.605-7.277-4.279-10.479-7.132-.116-.102-.291.088-.204.204 2.344 2.867 5.807 4.395 8.82 6.448a30.067 30.067 0 0 1 4.962 4.235c-.975-.699-2.008-1.324-3.012-1.892-5.21-2.955-10.813-4.89-15.747-8.369-.203-.145-.407.131-.233.291l-.014-.014zM255.278 263.454c.058 1.281-.32 2.242-.815 3.391-.044.102-.204.044-.16-.058.393-1.019.494-2.241.64-3.318.029-.175.32-.204.335 0v-.015zM231.672 256.861c.03.64-.101 1.295-.101 1.95 0 .204-.306.189-.35 0-.145-.611-.218-1.426.073-2.008.073-.16.364-.175.378.043v.015zM220.103 273.613c.262.233.596.466.815.743.072.087 0 .247-.131.232-.408-.072-.728-.363-.975-.684-.146-.174.101-.451.291-.291z" fill="#fff"/><path d="M250.795 289.07c-.771 2.853-1.993 5.851-1.047 8.966.072.262-.204.451-.35.233-1.164-1.79-9.911-7.132-9.212-8.646.422-.916 2.823.743 3.435-.538.247-.539-.029-1.776-.073-2.387a26.732 26.732 0 0 1-.087-2.416c.014-.742.189-1.674.873-1.834.8-.189 1.44.888 1.833 1.601.321.582.597 1.208.888 1.834.32.684.713 1.907 1.441 1.033.626-.771.975-1.79 1.819-2.299 1.921-1.165.728 3.624.509 4.482l-.029-.029z" fill="#455A64"/><path d="M258.698 313.231c-.597.335-1.194.684-1.776 1.063-.029-.073-.073-.146-.087-.219-1.936-4.41-4.25-8.645-6.229-13.041-1.965-4.395-3.041-8.631-3.842-13.346 0-.059.058-.073.073-.029 1.484 8.136 6.767 15.602 10.507 22.821.481.917.932 1.834 1.368 2.78l-.014-.029z" fill="#455A64"/><path d="M255.903 311.368s-1.149-12.488.859-18.965c2.008-6.476 9.096-15.093 9.096-15.093s6.403 18.878-9.955 34.058z" fill="#455A64"/><path d="M435.65 508.278c2.663.888 78.849.67 81.76-1.179 1.091-.684 1.717-11.803 2.081-25.223.087-2.896.145-5.88.189-8.936.058-3.595.102-7.249.131-10.8.087-15.908-.131-29.924-.131-29.924h-49.597l.029 29.924v10.8l.262 8.936s-29.136 13.143-32.09 15.501c-2.954 2.358-5.283 10.028-2.62 10.901h-.014z" fill="#F7A9A0"/><path d="M519.564 478.936c-.029.99-.044 1.965-.073 2.926-.364 13.434-.989 24.539-2.081 25.223-2.896 1.848-79.082 2.067-81.76 1.179-2.649-.874-.32-8.544 2.62-10.902 1.586-1.266 10.667-5.618 18.759-9.387-2.46 2.212-5.792 5.574-4.89 6.767 2.445 3.232 51.78-3.536 65.155-14.292.858-.684 1.6-1.194 2.27-1.514z" fill="#263238"/><path d="M536.213 220.824s-13.404 132.593-13.724 134.266c-.044.219-.145 2.78-.262 6.943-.728 22.822-2.503 93.994-2.503 93.994h-54.691s3.566-84.301 5.618-103.964c2.605-25.092 19.064-131.239 19.064-131.239h46.498z" fill="#37474F"/><path d="M515.969 359.762c1.688-28.731 4.206-57.403 7.612-85.989 1.921-16.112 4.235-32.165 6.534-48.219.015-.146.247-.131.218 0-4.235 28.585-7.233 57.389-9.809 86.163-2.576 28.746-4.38 57.535-5.559 86.368-.669 16.33-1.164 32.675-1.703 49.02 0 .393-.611.378-.611-.015.771-29.123 1.616-58.247 3.318-87.328z" fill="#263238"/><path d="M468.482 447.207c1.426-.189 18.075-.437 24.464-.437 5.458 0 22.601.422 24.464.422.146 0 .131.146 0 .175-2.241.349-11.977.611-22.441.611-6.389 0-25.657-.436-26.487-.553-.145-.014-.131-.204 0-.218zM536.213 220.824s-13.404 132.593-13.724 134.266c-.044.219-.145 2.78-.262 6.943l-25.788-141.209h39.774z" fill="#263238"/><path d="M539.589 508.773c2.809.16 76.332-19.809 78.646-22.341.887-.946-1.398-11.833-4.541-24.889-.669-2.823-1.252-5.778-2.125-8.689a411.333 411.333 0 0 0-3.376-10.814c-4.905-15.239-9.634-27.858-9.634-27.858l-46.556 12.488 8.295 27.669 3.391 11.352 2.562 8.573s-24.726 20.246-26.968 23.288c-2.241 3.041-2.503 11.061.292 11.221h.014z" fill="#F7A9A0"/><path d="M618.235 486.432c-2.314 2.532-75.837 22.501-78.66 22.341-2.795-.16-2.518-8.18-.292-11.207 1.368-1.848 10.988-10.028 18.352-16.156-2.125 2.504-5.457 6.768-4.308 7.889 2.824 2.78 48.623-10.246 61.619-22.545 2.459 10.639 4.045 18.863 3.289 19.692v-.014z" fill="#263238"/><path d="M489.715 220.824s3.609 19.153 16.969 28.891c0 0 18.818 103.469 21.19 115.171 4.599 22.749 23.983 87.692 23.983 87.692l55.783-17.073s-24.1-78.362-27.346-86.586c-1.761-4.468-15.251-90.195-14.975-92.247 3.289-24.496-8.339-35.965-8.339-35.965l-67.25.117h-.015z" fill="#37474F"/><path d="M534.001 225.088c1.033 3.842 3.551 7.219 6.694 9.606 3.537 2.693 7.786 3.813 12.152 4.163.742.058.801 1.179.029 1.179-8.921.058-17.929-5.648-19.239-14.89-.029-.204.305-.262.364-.058zM498.127 243.645c3.275 1.165 6.272 3.071 9.212 4.891 3.056 1.892 5.894 4.119 8.849 6.156.116.073.014.262-.102.189-3.1-1.79-6.331-3.333-9.387-5.166-2.984-1.791-6.069-3.523-8.688-5.822-.102-.088 0-.291.131-.248h-.015z" fill="#263238"/><path d="M496.875 225.059c.481 2.038 1.077 4.061 1.601 6.084.51 1.906.903 3.842 1.499 5.72.582 1.819 1.441 3.478 2.911 4.715.786.67 1.644 1.252 2.474 1.849.451.32.931.64 1.397.961a12.996 12.996 0 0 1-.189-.816c-.175-.771-.335-1.557-.509-2.328a532.52 532.52 0 0 1-1.077-5.182c-.684-3.391-1.325-6.826-2.183-10.173-.03-.131.174-.204.203-.059 1.005 3.319 2.096 6.594 2.998 9.941.437 1.645 2.111 9.766 2.198 10.349a37.5 37.5 0 0 1 .218 1.79c.044.596.189 1.251.087 1.834-.029.145-.203.131-.276.043-.32-.509-.422-1.179-.597-1.761a24.362 24.362 0 0 1-.465-1.761l-.131-.655c-.83-.451-1.616-1.062-2.387-1.572-.844-.553-1.688-1.091-2.489-1.703-1.528-1.179-2.517-2.649-3.143-4.468-.655-1.878-.917-3.886-1.237-5.836-.364-2.315-.67-4.643-1.092-6.958-.029-.131.175-.203.204-.058l-.015.044zM553.749 440.847c1.31-.597 17.173-5.677 23.271-7.54 5.225-1.586 21.742-6.171 23.532-6.724.131-.044.175.102.044.16-2.037.99-11.279 4.075-21.291 7.117-6.098 1.863-24.668 7.059-25.497 7.19-.146.029-.19-.16-.059-.218v.015zM583.962 383.254c-2.212-6.434-4.453-12.852-6.622-19.3a155.99 155.99 0 0 1-5.166-19.343c-2.664-13.376-4.963-26.824-7.131-40.287a1087.683 1087.683 0 0 1-3.086-20.493 768.22 768.22 0 0 1-1.382-10.145c-.437-3.289-.975-6.564-1.15-9.897-.669-12.255 3.711-25.209-1.63-36.911a21.43 21.43 0 0 0-2.168-3.697c-.088-.116-.262 0-.189.117 7.102 11.105 3.201 24.597 2.997 36.838-.116 6.709 1.019 13.39 1.965 20.012.961 6.695 1.965 13.376 2.998 20.057 2.081 13.405 4.381 26.766 6.84 40.112 1.208 6.565 2.46 13.07 4.453 19.445 2.023 6.434 4.337 12.779 6.549 19.14 4.468 12.895 16.009 45.134 16.576 46.749.044.131.262.073.219-.072-4.366-12.983-9.634-29.386-14.088-42.34l.015.015z" fill="#263238"/><path d="M512.258 149.709c-12.807 13.522-43.907 28.557-54.167 28.557-11.715 0-31.362-16.229-46.148-29.91-3.245-2.998 16.751-32.443 20.331-29.342 8.965 7.728 29.907 28.832 33.152 29.342 4.744.742 23.867-4.338 39.017-8.646 16.838-4.788 14.306 3.13 7.801 9.999h.014z" fill="#F7A9A0"/><path d="M422.421 151.296c4.177 0 14.859-25.354 12.749-29.095-.393-.699-1.426-1.834-2.882-3.187 0 0-4.293-8.573-5.326-16.957-.888-7.044-1.397-17.596-5.196-17.261-5.544.465-6.505 13.9-6.592 21.642-3.639-2.11-6.986-3.58-9.242-3.711-7.494-.48-13.883 32.704-8.237 37.842 5.443 4.963 20.535 10.741 24.712 10.727h.014z" fill="#F7A9A0"/><path d="M389.531 146.929s8.281 1.47 12.356-2.809c12.719-13.303-1.703-54.856-8.718-53.168-7.014 1.689-13.811 27.989-13.811 27.989l10.188 27.988h-.015zm.32-4.06-7.931-21.789s5.617-22.894 11.089-24.204c5.458-1.31 16.358 33.461 6.462 43.809-3.173 3.319-9.605 2.184-9.605 2.184h-.015z" fill="#37474F"/><path d="m320.301 126.247 2.547 12.896-11.031 6.418 8.484-19.314zM362.142 177.203l43.267-19.168-35.408-60.926-27.651 12.531 19.792 67.563z" fill="#455A64"/><path d="m370.001 97.109 2.357-6.623-35.641 15.326 5.633 3.828 27.651-12.531zM352.275 143.495l4.642 15.864-36.776-18.674 2.14-4.497 29.994 7.307z" fill="#37474F"/><path d="M316.634 132.113c-4.06-3.93-12.85-4.265-12.894-.539-.015 2.052 3.129 2.649 6.971 1.194 3.129-1.179 5.908-.641 5.908-.641l.015-.014zM310.638 145.328c-3.26 1.398-5.603 6.419-3.449 7.336 1.179.509 2.299-1.179 2.387-3.755.072-2.096 1.062-3.581 1.062-3.581zM311.89 138.4s-6.302-1.644-12.327 2.722c-4.584 3.319-7.204 10.116-2.94 11.906 1.703.713 4.075-.742 5.938-3.435 2.823-4.104 4.424-9.475 9.314-11.178l.015-.015z" fill="#EBEBEB"/><path d="M417.328 105.769c1.106 3.74-3.93 2.911-3.93 2.911s6.971 2.954 6.622 7.248c-.349 4.148-6.403 2.925-6.84 2.838.364.16 6.709 3.042 5.909 7.321-.83 4.454-6.695 2.183-7.073 2.038.305.262 4.206 3.755 2.867 6.87-2.314 5.356-12.545-3.304-17.231-2.708 0 0 .087 8.049.043 8.297 0 0-9.91-8.035-10.347-14.41-.233-3.362 2.852-4.235 2.852-4.235s-3.478-2.241-2.968-5.633c.276-1.746 3.289-2.852 3.289-2.852s-2.707-1.907-2.067-4.905c.509-2.387 3.464-3.13 3.464-3.13s-1.747-3.041-.437-5.312c2.634-4.585 23.445-2.329 25.832 5.676l.015-.014z" fill="#F7A9A0"/><path d="M392.383 105.201s-.087-.102 0-.116c7.03-.932 15.019.203 21.292 3.595.204.116.116.495-.131.407-7.131-2.256-13.637-3.682-21.146-3.9l-.015.014zM390.433 113.381c-.087 0-.072-.131 0-.146 7.248-.917 16.227.597 22.994 5.356.233.161.277.539 0 .379-4.744-2.824-16.226-5.429-22.994-5.589zM412.38 128.605c-6.666-4.308-14.044-6.055-21.874-6.739-.102 0-.073-.145 0-.174 3.929-.699 8.878.262 12.661 1.339 3.624 1.033 6.695 2.692 9.358 5.341.102.102 0 .32-.145.233z" fill="#263238"/><path d="M413.515 108.607c.247.131-.219.349.029.495 1.019.597 6.854 4.701 6.068 7.117-.625 1.936-3.667 2.431-4.918 2.169l-3.129-.67 2.706 1.718c1.179.756 2.314 1.703 3.188 2.794.873 1.077 1.44 2.387 1.208 3.624-.219 1.296-1.107 2.242-2.387 2.373-1.266.174-2.736-.175-3.988-.699l-3.507-1.455 2.823 2.503a12.245 12.245 0 0 1 2.067 2.358c.567.859.989 1.834.975 2.765-.015.903-.539 1.82-1.339 2.154-.844.364-1.936.277-2.983.088-2.111-.408-4.163-1.281-6.244-2.053-1.033-.393-2.081-.786-3.143-1.12-1.063-.32-2.169-.67-3.289-.524 1.12-.029 2.154.422 3.187.815 1.019.422 2.023.888 3.027 1.353 2.008.932 4.046 1.863 6.272 2.416 1.106.248 2.314.466 3.58 0 1.296-.48 2.052-1.819 2.096-3.114.044-1.31-.495-2.46-1.106-3.45a13.559 13.559 0 0 0-2.256-2.663l-.684 1.048c1.47.626 2.998 1.062 4.716.873.844-.102 1.731-.48 2.357-1.15.64-.669.975-1.499 1.106-2.343.277-1.761-.553-3.406-1.528-4.599-1.019-1.223-2.212-2.198-3.551-3.028l-.422 1.048c1.586.291 5.05.102 6.418-2.78 1.208-4.017-5.967-7.554-7.32-8.107l-.029.044z" fill="#263238"/><path d="M413.398 108.665c.844-.043 1.674-.174 2.358-.436.684-.262 1.12-.772 1.222-1.369.102-.596-.145-1.339-.48-2.037a21.59 21.59 0 0 0-1.222-2.14c.742.422 1.411.99 1.935 1.703.51.699.975 1.587.83 2.664a2.698 2.698 0 0 1-.742 1.368 2.745 2.745 0 0 1-1.325.64c-.931.175-1.819-.014-2.59-.378l.014-.015z" fill="#263238"/><path d="m434.792 119.843-13.098 46.954s24.595 12.458 35.015 12.677c10.42.218 40.385-13.638 56.626-29.808 6.273-6.244 7.335-14.773-8.048-11.004-15.397 3.755-36.441 8.064-38.056 7.729-1.616-.335-32.439-26.533-32.439-26.533v-.015z" fill="#EBEBEB"/><path d="M442.199 127.659c-1.179 3.289-2.037 6.724-2.969 10.086a402.615 402.615 0 0 0-2.707 10.16c-1.717 6.782-3.274 13.623-4.744 20.478-.029.146.175.189.218.058 1.979-6.724 3.915-13.463 5.661-20.245a413.991 413.991 0 0 0 2.489-10.203c.786-3.391 1.688-6.826 2.227-10.276.014-.102-.131-.145-.16-.043l-.015-.015z" fill="#A6A6A6"/><path d="m490.778 192.078-3.42 35.557s60.003-2.067 74.236-3.77c0 0-17.275-65.321-33.444-81.244-8.091-7.961-17.071-6.899-22.543-.8-1.382 1.543-17.624 25.325-19.021 34.174-1.222 7.816 4.192 16.083 4.192 16.083z" fill="#2797FF"/><path d="M522.271 93.601c1.877 2.78 16.139 9.519 23.591-2.649 7.334-11.993-7.961-27.494-19.982-18.936-8.077 5.75-7.611 15.676-3.609 21.585z" fill="#263238"/><path d="M521.15 140.394c-.393 1.179-6.869 8.5-12.37 7.743-1.79-.247-.859-10.086-.859-10.086l-.102-.742-1.353-10.392 12.647-6.579 1.819-.859s.175 2.868.378 6.433c0 .161.015.335.029.51l.044.582c.029.539.073 1.077.087 1.616.015.407.044.815.044 1.251.015.437.015.859.029 1.296.058 4.293-.247 8.718-.407 9.227h.014z" fill="#F7A9A0"/><path d="M521.325 125.927c-3.653 7.83-10.421 10.552-13.491 11.382l-1.354-10.392 12.647-6.579 1.819-.859s.175 2.868.379 6.433v.015z" fill="#263238"/><path d="M494.11 109.393c-3.318 18.077 7.131 22.108 11.032 22.822 3.536.64 15.673 2.401 20.84-15.239 5.166-17.64-2.183-24.889-10.202-26.795-8.019-1.907-18.352 1.15-21.67 19.226v-.014z" fill="#F7A9A0"/><path d="M525.807 117.121c-3.944-2.023-3.987-6.244-3.987-6.244-4.919-2.299-7.481-6.273-7.743-6.68.117.378.903 3.115 1.339 4.497-11.453-2.547-14.713-11.483-14.713-11.483-3.871 3.609-4.686 5.967-5.268 7.131 0 0 .218-7.03 3.958-11.687 12.574-15.675 26.429 1.092 26.429 1.092s4.642 2.634 5.283 7.35c1.237 9.155-5.269 16.024-5.269 16.024h-.029z" fill="#263238"/><path d="M506.728 106.482c1.805 1.092 3.813 1.863 5.836 2.372.014 0 .014-.014 0-.029-3.216-1.033-6.069-2.838-8.281-5.4a17.262 17.262 0 0 1-2.372-3.565c-.67-1.34-1.31-2.94-1.383-4.454 0-.117-.189-.102-.174 0 .072 1.6.174 3.07.756 4.57a12.954 12.954 0 0 0 2.431 3.901c.931 1.019 2.008 1.863 3.187 2.576" fill="#263238"/><path d="M522.853 116.263s4.54-5.327 7-3.654c2.459 1.674-1.339 9.665-4.482 10.509-3.144.844-3.988-2.052-3.988-2.052l1.484-4.789-.014-.014z" fill="#F7A9A0"/><path d="M528.703 114.865s.059.073 0 .088c-2.212.655-3.522 2.532-4.511 4.512.713-.728 1.615-1.077 2.605-.219.058.044 0 .131-.073.102-.859-.276-1.499-.174-2.154.466-.465.451-.815 1.048-1.164 1.601-.116.175-.451.044-.364-.16 0-.015.015-.029.029-.044.204-2.721 2.678-6.331 5.632-6.331v-.015z" fill="#263238"/><path d="M521.572 138.095s-5.064 24.626-2.095 58.655c5.617 64.172 21.538 158.981 25.366 165.268 5.865 9.636 66.857 15.85 66.857 15.85s-17.362-77.474-47.487-158.34c0 0-12.516-36.125-16.954-45.76-16.635-36.095-25.687-35.673-25.687-35.673z" fill="#EBEBEB"/><path d="M578.737 272.172s-9.241 2.868-17.071 4.134c-8.091 1.31-16.241 1.805-18.555 2.154-.218.029-.204.728-.058.728 3.085-.102 12.516-.67 18.672-1.659 6.17-.99 14.233-3.304 16.576-4.309.247 1.718.451 3.057.742 4.774-5.53 2.023-16.212 5.706-34.36 6.288-.175-.713-.684-4.541-1.004-5.56-.044-.16-.714-.073-.699.175.029 1.048 1.091 10.29 1.368 12.153.713 4.599 3.1 17.509 4.642 19.838 3.508 5.269 14.583 3.508 17.653 3.027 3.1-.48 12.996-1.761 16.125-5.967 1.66-2.256.393-12.837-1.382-22.08-.859-4.424-2.343-13.637-2.62-13.681l-.029-.015zm-11.41 40.419c-9.794 1.586-14.378.218-16.212-1.572-2.139-2.096-2.954-6.23-3.827-10.785-.684-3.581-2.372-14.875-2.431-15.093 5.894.232 21.204-.626 34.375-6.011.873 5.341 1.586 9.606 2.445 14.947.626 3.872 1.426 10.407-.175 12.968-1.339 2.155-7.102 4.396-14.175 5.546z" fill="#A6A6A6"/><path d="M563.063 275.258c1.82 5.312-.174 13.798 4.003 13.667 3.711-.117 4.526-6.142 4.526-6.142s1.28 7.073 5.239 5.807c3.958-1.266 3.507-8.049 3.507-8.049s.8 5.939 4.657 4.396c3.857-1.543 4.526-7.379 4.526-7.379s1.397 1.542 3.638-.772c3.202-3.318 1.849-13.186-.087-18.179-1.935-4.992-12.69-21.817-14.393-24.35l-32.104 12.139s-.655 10.45-.335 15.792c.32 5.341 6.243 22.647 10.638 21.468 4.395-1.179 0-13.332-.422-16.534-.422-3.217.248-3.857 1.557-2.562.859.844 4.265 8.34 5.065 10.683l-.015.015z" fill="#F7A9A0"/><path d="M571.49 282.492c.538-8.471-.699-12.255-4.701-19.591-.073-.145.116-.291.218-.145 4.57 6.826 6.797 11.352 4.89 19.794-.087.407-.436.349-.407-.044v-.014zM580.236 280.92c-.218-8.835-1.513-12.968-5.137-20.959-.058-.116.131-.218.189-.102 4.22 7.539 6.331 12.11 5.385 20.973-.044.408-.437.481-.451.088h.014zM589.448 277.485c-.829-8.544-2.052-13.128-6.563-20.435-.102-.175.131-.349.262-.175 5.326 7.001 6.898 12.707 6.563 20.566-.029.539-.203.597-.262.058v-.014z" fill="#263238"/><path d="M532.851 148.53c19.036 25.85 44.053 80.4 47.327 89.119 2.227 5.923-31.537 17.917-32.439 13.681-1.164-5.429-18.992-73.574-23.751-98.826-2.62-13.929 4.162-10.349 8.863-3.974z" fill="#F7A9A0"/><path d="m540.797 241.87 39.483-9.883s-36.15-70.343-46.148-83.457c-10.144-13.332-12.007-5.792-10.144 8.486 2.008 15.355 16.809 84.868 16.809 84.868v-.014z" fill="#EBEBEB"/><path d="M574.881 227.635c-2.693.335-5.371 1.033-8.019 1.616-2.663.582-5.327 1.164-7.975 1.775-5.312 1.208-10.624 2.46-15.849 3.959-.145.044-.087.248.058.219 5.371-.947 10.697-2.125 15.994-3.363a753.031 753.031 0 0 0 7.772-1.833c2.692-.655 5.472-1.194 8.091-2.096.175-.059.117-.291-.072-.277z" fill="#A6A6A6"/><path d="M545.003 240.734c-.742 0-3.755.335-3.871.393.029-.378-1.965-12.953-2.489-15.559-1.019-5.094-2.11-10.188-3.172-15.268-2.169-10.29-4.468-20.551-6.71-30.812-1.266-5.778-2.561-11.556-3.987-17.291-.029-.131-.233-.072-.204.059a469.518 469.518 0 0 0 1.878 10.071c-.626-1.441-1.267-2.852-1.849-4.308-.058-.131-.276-.073-.218.073.597 1.514 1.106 3.056 1.659 4.599.291.815.611 1.616.946 2.402 1.193 6.069 2.445 12.124 3.682 18.178 2.096 10.305 4.162 20.624 6.447 30.9.626 2.824 3.362 17.917 3.464 17.873.145-.058 3.842-.829 4.54-1.106.073-.029 0-.175-.087-.16l-.029-.044z" fill="#A6A6A6"/><path d="M507.499 140.016s-10.842 14.293-14.044 59.296c-3.449 48.54-10.813 153.712-11.38 157.438-.568 3.726-15.747 12.429-15.747 12.429l23.387-176.926s-4.322-8.704-3.594-15.152c.96-8.558 17.187-35.164 21.378-37.085z" fill="#EBEBEB"/><path d="M496.075 155.56c-1.091 1.529-2.067 3.159-3.027 4.774l.175-.567a27.4 27.4 0 0 0 .698-2.591c.015-.073-.073-.087-.102-.029-.32.844-.611 1.688-.858 2.561l-.437 1.485c0 .015-.029.044-.044.058-.582.961-2.43 5.051-2.968 6.04-.073.131.131.248.203.117.466-1.004 2.78-4.861 3.289-5.851 1.004-1.994 2.14-3.944 3.144-5.938.029-.059-.058-.102-.088-.044l.015-.015z" fill="#A6A6A6"/><path d="M507.499 140.016c-3.58 4.672-7.174 9.33-10.813 13.958l-.029-.379 2.809 2.518.218.204-.204.233-5.763 6.608.088-.218c.043 6.054 0 12.124-.029 18.178-.059 6.055-.146 12.124-.306 18.179a950.07 950.07 0 0 1-.306-18.179c-.014-6.054-.072-12.124-.029-18.178v-.131l.088-.088 5.806-6.578.029.436-2.75-2.561-.189-.175.16-.204c3.711-4.57 7.466-9.097 11.249-13.623h-.029zM521.543 138.051c1.95 5.589 3.871 11.193 5.734 16.825l.102.291-.306.059-5.443 1.062.233-.422 3.071 7.612.029.087v.088c-.786 5.894-1.659 11.789-2.503 17.684a886.349 886.349 0 0 1-2.78 17.64c.67-5.924 1.397-11.818 2.169-17.728.8-5.894 1.571-11.803 2.445-17.684v.175l-2.998-7.627-.146-.349.364-.073 5.457-.989-.203.349a1327.588 1327.588 0 0 1-5.21-16.985l-.015-.015z" fill="#A6A6A6"/><path d="M614.553 551.098H443.902v21.73h170.651v-21.73zM583.467 508.773H436.16v21.73h147.307v-21.73z" fill="#455A64"/><path d="M444.338 589.799h-12.515l12.908-59.296h25.439l-25.832 59.296z" fill="#455A64"/><path d="M444.746 530.489h25.424l-6.461 14.845h-22.194l3.231-14.845z" fill="#37474F"/><path d="M575.317 589.799h12.516l-12.923-59.296h-25.439l25.846 59.296z" fill="#455A64"/><path d="M578.141 545.334h-22.209l-6.461-14.845h25.439l3.231 14.845z" fill="#37474F"/></g><defs><clipPath id="a"><path fill="#fff" d="M0 0h642v620H0z"/></clipPath></defs></svg>