<svg width="742" height="562" fill="none" xmlns="http://www.w3.org/2000/svg"><g clip-path="url(#a)"><path d="M668.598 458.329a529.193 529.193 0 0 0 4.161-13.301l-3.316-.982a511.828 511.828 0 0 1-4.136 13.212l3.291 1.071zm-593.474-5.577 3.433-.423a974.935 974.935 0 0 1-1.61-13.761l-3.44.374a942.732 942.732 0 0 0 1.617 13.81zm601.456-21.121a582.93 582.93 0 0 0 3.491-13.485l-3.361-.82a573.487 573.487 0 0 1-3.472 13.403l3.342.902zm-604.487-6.52 3.447-.324a879.137 879.137 0 0 1-1.204-13.8l-3.45.273c.363 4.558.77 9.22 1.21 13.851h-.003zm611.141-20.527a554.833 554.833 0 0 0 2.827-13.638l-3.399-.654a548.873 548.873 0 0 1-2.811 13.552l3.38.74h.003zm-613.345-7.193 3.456-.22c-.292-4.611-.55-9.264-.762-13.828l-3.456.162c.213 4.583.473 9.255.765 13.886h-.003zm618.652-20.149a518.794 518.794 0 0 0 2.119-13.768l-3.427-.476a530.586 530.586 0 0 1-2.103 13.676l3.415.568h-.004zm-619.948-7.635 3.46-.102c-.138-4.634-.23-9.29-.277-13.844l-3.462.035c.047 4.573.143 9.252.28 13.908v.003zm623.801-19.955c.515-4.64.966-9.306 1.334-13.87l-3.449-.276c-.369 4.529-.813 9.16-1.325 13.768l3.44.381v-.003zM71.76 341.817c.041-4.637.13-9.293.263-13.838l-3.458-.102a687.883 687.883 0 0 0-.264 13.911l3.462.032-.003-.003zm622.877-19.939c.228-4.666.381-9.354.451-13.927l-3.462-.054c-.07 4.535-.223 9.182-.448 13.809l3.455.169.004.003zm-622.058-7.727c.239-4.631.53-9.278.868-13.81l-3.453-.257a600.24 600.24 0 0 0-.874 13.889l3.456.174.003.004zm619.018-20.066 3.459-.07a361.086 361.086 0 0 0-.553-13.93l-3.456.203c.267 4.519.452 9.163.547 13.797h.003zM74.65 286.564c.464-4.631.985-9.252 1.557-13.743l-3.434-.432a512.742 512.742 0 0 0-1.566 13.835l3.443.34zm615.302-20.041 3.443-.343a314.714 314.714 0 0 0-1.703-13.847l-3.424.495a308.53 308.53 0 0 1 1.684 13.698v-.003zm-611.808-7.397a445.659 445.659 0 0 1 2.35-13.622l-3.401-.638a452.849 452.849 0 0 0-2.37 13.727l3.421.53v.003zm409.324-.486c4.809-.756 8.287-2.934 13.105-6.701l-2.188-2.671c-4.221 3.29-7.27 5.262-11.288 5.945l.368 3.427h.003zm-12.009-8.2 3.081-1.569c-1.585-3.09-2.986-7.378-4.164-12.745l-3.379.736c1.257 5.736 2.718 10.176 4.462 13.578zm35.272-8.385c2.757-3.058 5.704-6.577 9.008-10.76l-2.719-2.131c-3.259 4.122-6.156 7.587-8.862 10.589l2.576 2.302h-.003zm175.225-2.827 3.399-.657a277.1 277.1 0 0 0-3.015-13.635l-3.36.829a270.314 270.314 0 0 1 2.976 13.467v-.004zm-602.667-7.25a363.605 363.605 0 0 1 3.288-13.416l-3.345-.883a364.371 364.371 0 0 0-3.316 13.543l3.377.752-.004.004zm385.379-8.985 3.434-.442c-.531-4.116-1.007-8.619-1.458-13.774l-3.449.298c.451 5.203.933 9.754 1.47 13.918h.003zm59.548-2.802a1411.87 1411.87 0 0 0 8.245-11.236l-2.801-2.023a1396.346 1396.346 0 0 1-8.226 11.208l2.782 2.051zm-253.385-.282c2.696 0 5.339-.804 7.861-2.385l-1.845-2.916c-3.787 2.379-7.509 2.385-11.533.486l-1.49 3.112c2.379 1.128 4.736 1.703 7.007 1.703zm404.468-7.429 3.309-1.007a241.98 241.98 0 0 0-4.485-13.24l-3.246 1.197a238.446 238.446 0 0 1 4.422 13.05zm-422.792-3.287 2.544-2.338c-2.623-2.829-5.437-6.323-8.601-10.674l-2.804 2.02c3.243 4.465 6.142 8.06 8.861 10.992zm36.025-2.369c2.239-3.443 4.459-7.496 6.784-12.39l-3.128-1.474c-2.262 4.755-4.406 8.677-6.562 11.99l2.903 1.874h.003zm-202.128-1.528a286.303 286.303 0 0 1 4.422-13.069l-3.253-1.182a287.865 287.865 0 0 0-4.475 13.225l3.306 1.023v.003zm454.262-7.581a832.226 832.226 0 0 1 8.305-11.135l-2.76-2.081a822.711 822.711 0 0 0-8.337 11.183l2.792 2.036v-.003zm-78.507-2.563 3.453-.223c-.264-4.039-.531-8.578-.817-13.876l-3.455.185c.286 5.31.556 9.864.819 13.914zm203.535-8.487 3.167-1.391a217.457 217.457 0 0 0-6.077-12.608l-3.068 1.594a211.224 211.224 0 0 1 5.978 12.409v-.004zm-429.973 0 2.894-1.892c-2.459-3.726-5-7.67-7.573-11.656l-2.912 1.864c2.579 3.995 5.12 7.946 7.591 11.688v-.004zm65.169-5.097a409.278 409.278 0 0 0 4.952-13.063l-3.256-1.169c-1.753 4.837-3.357 9.074-4.91 12.955l3.214 1.277zm-204.973-2.15a211.31 211.31 0 0 1 5.851-12.463l-3.085-1.562a214.033 214.033 0 0 0-5.945 12.669l3.179 1.359v-.003zm461.598-3.764c3.142-3.881 6.064-7.339 8.938-10.563l-2.588-2.287c-2.91 3.268-5.867 6.765-9.043 10.691l2.697 2.162-.004-.003zm-96.896-8.324 3.455-.175a5069.81 5069.81 0 0 0-.711-13.901l-3.456.181c.248 4.685.48 9.29.712 13.895zm-240.08-3.995 2.887-1.9a403.935 403.935 0 0 0-7.906-11.525l-2.82 2a398.782 398.782 0 0 1 7.839 11.425zm432.31-.972 2.916-1.855c-2.719-4.243-5.523-8.074-8.334-11.389l-2.643 2.223c2.713 3.198 5.425 6.905 8.061 11.017v.004zm-342.385-7.013c1.588-4.634 3.144-9.268 4.459-13.19l-3.284-1.089a2072.116 2072.116 0 0 1-4.45 13.167l3.275 1.115v-.003zm265.505-.241c3.538-3.43 7.016-6.46 10.339-9.007l-2.109-2.732c-3.427 2.627-7.01 5.746-10.641 9.268l2.414 2.471h-.003zm-467.481-.146c2.481-4.031 5.079-7.842 7.728-11.329l-2.76-2.081c-2.716 3.577-5.38 7.483-7.918 11.609l2.95 1.801zm526.594-12.997 2.099-2.741c-4.132-3.141-8.436-5.405-12.784-6.73l-1.013 3.297c3.957 1.207 7.892 3.284 11.698 6.174zm-430.726-1.054 2.69-2.169c-3.246-3.989-6.32-7.423-9.401-10.494l-2.449 2.436c2.995 2.986 5.993 6.333 9.163 10.227h-.003zm254.779-1.356 3.456-.207c-.298-5.011-.597-9.559-.908-13.911l-3.453.245c.312 4.335.607 8.874.909 13.87l-.004.003zm138.617-.721c4.319-2.141 8.566-3.507 12.625-4.062l-.47-3.415c-4.434.607-9.043 2.081-13.699 4.39l1.54 3.087h.004zm-472.63-5.571c3.332-3.401 6.781-6.4 10.253-8.921l-2.039-2.786c-3.627 2.633-7.226 5.762-10.694 9.3l2.477 2.407h.003zm194.219-4.294c1.721-5.129 3.141-9.312 4.466-13.161l-3.275-1.118a1827.446 1827.446 0 0 0-4.475 13.183l3.281 1.093.003.003zm-134.503-7.082 1.985-2.824c-4.256-2.966-8.556-5.161-12.778-6.53l-1.067 3.278c3.897 1.261 7.887 3.303 11.863 6.076h-.003zm-37.762-4.224c4.288-1.801 8.627-2.916 12.896-3.313l-.321-3.433c-4.625.428-9.307 1.629-13.918 3.569l1.343 3.177zm310.049-5.816 3.446-.305a611.42 611.42 0 0 0-1.394-13.882l-3.44.384c.492 4.348.959 8.992 1.388 13.803zm-128.713-9.15c1.674-4.65 3.25-8.899 4.819-12.993l-3.234-1.229a667.456 667.456 0 0 0-4.844 13.06l3.259 1.162zM457.977 84.3l3.424-.493a329.163 329.163 0 0 0-2.287-13.796l-3.401.638c.81 4.281 1.569 8.874 2.261 13.65h.003zm-115.604-7.467a353.814 353.814 0 0 1 5.571-12.67l-3.141-1.448a351.942 351.942 0 0 0-5.629 12.796l3.196 1.325.003-.003zm110.402-19.676 3.357-.835c-1.207-4.815-2.538-9.347-3.954-13.476l-3.275 1.115c1.385 4.037 2.69 8.477 3.872 13.196zM354.09 51.79c2.277-4.269 4.602-8.28 6.911-11.913l-2.925-1.842c-2.357 3.71-4.726 7.794-7.045 12.142l3.056 1.616.003-.003zm89.613-20.46 3.104-1.524c-2.275-4.587-4.793-8.642-7.49-12.053l-2.719 2.134c2.551 3.223 4.939 7.073 7.105 11.446v-.003zm-74.771-2.636c3.024-3.776 6.146-7.12 9.278-9.941l-2.322-2.557c-3.271 2.944-6.521 6.429-9.662 10.348l2.706 2.15zm58.011-17.744 1.864-2.903a34.559 34.559 0 0 0-13.426-5.05l-.527 3.408a31.105 31.105 0 0 1 12.085 4.548l.004-.003zm-37.813 0c4.03-2.166 8.233-3.646 12.482-4.4l-.606-3.394c-4.615.819-9.164 2.42-13.518 4.757l1.642 3.033v.004z" fill="#DCE6FF"/><path d="M728.466 477.156s5.022 19.688-15.785 24.617c-28.466 6.743-189.398 24.83-148.809 38.294 22.913 7.6-17.841 17.541-129.443 21.342-111.603 3.799-303.099-11.087-238.702-33.113 64.398-22.025-197.976-5.32-181.993-51.137h714.732v-.003z" fill="#CFDDF9"/><path d="M602.644 476.956s80.901-227.39 20.242-275.77c-40.544-32.335-80.129 49.076-131.425 11.364-45.668-33.574-16.434-112.018-60.894-149.835-54.685-46.516-146.033 184.425-210.205 148.6-100.946-56.352-162.66 32.544-92.561 266.054l474.843-.416v.003z" fill="#D4E8FF"/><path d="M51.073 380.605c28.72-4.24 26.121 59.484 67.06 59.484 37.431 0 57.46-142.368 98.535-113.412 165.131 116.407 36.647-81.681 147.684-85.552 50.207-1.75 83.662 51.568 96.001 145.975 17.882 85.346 59.357-65.095 102.039-51.108 27.125 8.89 24.018 104.097 61.45 104.097 40.938 0 38.242-53.583 66.964-49.343 30.917 4.564 38.165 87.642 38.165 87.642H13.001s7.149-93.215 38.07-97.783h.002z" fill="#EEF7FF"/><path d="M78.624 447.362c26.423-1.81 22.109 14.546 59.773 14.546 34.436 0 33.49-36.661 56.533-44.451 42.437-14.35 77.42 58.267 93.873 21.822 31.247-96.703 122.382-145.198 164.426 0 16.453 36.445 54.926-28.584 93.873-21.822 23.974 4.16 22.097 44.451 56.533 44.451 37.664 0 33.35-16.356 59.773-14.546 28.449 1.95 36.946 30.903 36.946 30.903H41.678s8.496-28.953 36.946-30.903z" fill="#DCE6FF"/><path d="M616.28 233.324s-6.521-3.678-11.225 4.729c-4.707 8.407-1.287 9.239-8.166 18.523-6.88 9.283 4.828 20.584 12.298 21.295 7.471.715 1.077 10.675 15.573 10.008 14.493-.664 42.155-44.315-8.477-54.558l-.003.003z" fill="#8C4225"/><path d="M580.058 317.838h87.927v87.921h-87.927v-87.921z" fill="#234270"/><path d="M580.601 405.153h87.384v4.033h-87.384v-4.033z" fill="#5279BF"/><path d="M622.734 477.394a3.236 3.236 0 0 1-3.246-3.23v-59.305a3.237 3.237 0 0 1 3.246-3.227c1.791 0 3.246 1.445 3.246 3.227v59.305a3.24 3.24 0 0 1-3.246 3.23z" fill="#4867AA"/><path d="M654.188 490.419c-5.988-.156-.124-10.239-11.276-11.211h-41.291c-4.427 0-8.029 3.579-8.029 7.981 0 4.215-6.486 4.224-6.495 0 0-7.962 6.514-14.438 14.521-14.438h41.291c10.215-1.248 20.032 16.01 11.275 17.668h.004z" fill="#4867AA"/><path d="M628.975 416.015h-12.483c-3.941-.089-4.942-3.611-4.589-6.924h21.661c.353 3.316-.647 6.835-4.589 6.924zM630.395 480.761h-15.322c-3.574-.054-3.247-3.891-3.17-6.413a3.16 3.16 0 0 1 3.17-3.15h15.322a3.16 3.16 0 0 1 3.169 3.15c.07 2.522.413 6.353-3.169 6.413zM596.482 487.189c-.136 8.02-12.133 8.016-12.269 0 .136-8.016 12.133-8.016 12.269 0zM660.324 487.189c-.137 8.02-12.133 8.016-12.27 0 .137-8.016 12.133-8.016 12.27 0z" fill="#234270"/><path d="M618.144 281.504c-.381.906-4.202 9.929-4.447 10.513-7.121 9.14-21.893 28.111-28.941 37.162-8.122-24.48 14.639-47.246 33.388-47.675z" fill="#3A72AA"/><path d="m551.707 505.172 29.977-.331c-.076-4.792-1.353-14.463-.403-19.932l-2.246-16.919-13.216.146 3.024 22.143a5.536 5.536 0 0 1-3.71 5.987c-5.507 2.163-11.796 1.223-15.322 5.568-.915 1.461.168 3.357 1.89 3.338h.006z" fill="#F99370"/><path d="M582.567 501.948c-.111 1.016-.381 2.004-.88 2.897l-30.269.333c-1.47.016-2.554-1.42-2.08-2.814 1.115-3.258 5.053-8.01 18.997-8.893 0 0 4.761 1.36 12.552-.136 0 0 2.138 4.5 1.68 8.616v-.003z" fill="#1D3F70"/><path d="M558.238 501.195a.616.616 0 0 1-.566-.378c-1.14-2.725-3.151-3.538-3.233-3.573-.74-.276-.299-1.438.441-1.143.105.041 2.573 1.013 3.926 4.243.175.394-.14.858-.565.851h-.003zM562.995 500.566a.615.615 0 0 1-.584-.425c-1.016-3.157-3.792-4.593-3.821-4.605-.715-.347-.152-1.464.553-1.096.133.067 3.262 1.683 4.434 5.326a.615.615 0 0 1-.585.8h.003zM568.411 499.842a.616.616 0 0 1-.578-.406c-1.182-3.278-3.847-5.041-3.872-5.06-.67-.422.006-1.47.667-1.029.124.08 3.033 1.992 4.361 5.673a.617.617 0 0 1-.578.822z" fill="#E8C0A6"/><path d="m549.354 502.31 33.213-.365c-.111 1.016-.381 2.004-.88 2.896l-30.269.334c-1.493.019-2.579-1.464-2.064-2.865z" fill="#395B96"/><path d="m513.844 477.02 28.697 8.68c1.365-4.593 3.049-14.204 5.596-19.136l2.935-16.814-12.651-3.827-3.76 22.029a5.532 5.532 0 0 1-5.337 4.596c-5.904.409-11.621-2.373-16.287.714-1.312 1.118-.848 3.253.8 3.751l.007.007z" fill="#F99370"/><path d="M544.249 483.203c-.409.934-.962 1.798-1.708 2.5l-28.974-8.766c-1.41-.426-2.01-2.122-1.14-3.309 2.039-2.773 7.223-6.127 20.791-2.783 0 0 4.136 2.729 12.016 3.634 0 0 .689 4.935-.981 8.724h-.004z" fill="#1D3F70"/><path d="M521.263 475.184a.614.614 0 0 1-.425-.531c-.27-2.941-1.941-4.322-2.014-4.379-.623-.486.146-1.464.762-.959.089.069 2.151 1.737 2.471 5.227.048.426-.39.778-.794.642zM525.993 476.013a.612.612 0 0 1-.429-.581c-.022-3.319-2.239-5.52-2.262-5.543-.578-.546.293-1.441.858-.876.105.105 2.608 2.585 2.63 6.409a.617.617 0 0 1-.797.591zM531.376 476.946a.617.617 0 0 1-.428-.558c-.143-3.481-2.157-5.965-2.176-5.987-.515-.604.448-1.401.946-.782.092.115 2.297 2.811 2.456 6.721a.616.616 0 0 1-.798.61v-.004z" fill="#E8C0A6"/><path d="m512.456 473.583 31.79 9.617c-.409.934-.962 1.798-1.708 2.5l-28.974-8.766c-1.429-.429-2.02-2.169-1.108-3.351z" fill="#395B96"/><path d="M563.186 487.189s8.515 3.23 19.445 0c1.248-27.501-4.663-82.856 37.816-81.954 19.174.308 43.698-20.129 35.7-40.589h-47.846c-49.962 10.767-49.127 68.465-45.115 122.54v.003z" fill="#9358E0"/><path d="M561.909 436.503c9.427-31.204 16.516-32.878 41.777-28.25 11.806-2.294 21.496-3.008 30.904-5.752l-8.607-36.937c-45.271-3.551-64.382 28.362-64.071 70.939h-.003z" fill="#7640CC"/><path d="M532.694 462.035s5.813 8.232 18.473 7.657c2.544-9.248 6.172-31.372 11.304-44.87 9.618-32.456 26.071-22.477 57.979-19.583 40.106 2.642 44.873-32.37 37.158-43.442-89.547.521-115.347-17.138-124.914 100.238z" fill="#9358E0"/><path d="M662.967 349.515c-.324 4.599-1.071 9.43-2.322 14.499 0 0-37.283 3.687-65.9-.308 0 0 5.136-18.789 4.215-28.74-.81-8.772-4.326-13.784-1.512-22.079 3.579-9.417 14.852-22.118 20.693-31.373 0-.006 11.869-.746 11.872-.75 9.815 12.12 35.31 27.444 32.95 68.755l.004-.004z" fill="#3A72AA"/><path d="M596.47 315.081c1.839-5.717 9.23-15.88 9.601-15.785a.41.41 0 0 0-.041-.575c-.95-.438-8.274 9.268-9.958 15.868a.407.407 0 0 0 .398.492z" fill="#23659B"/><path d="M635.969 350.49c.448.016.562-.67.124-.794-2.078-.663-3.799-1.911-3.815-1.924-2.131-.045 1.347 2.08 3.691 2.722v-.004z" fill="#C19480"/><path d="M502.406 355.642h185.081v12.056H502.406v-12.056z" fill="#4867AA"/><path d="M488.729 349.766h213.648v6.317h-11.542v143.569h-6.696V356.083H506.967v143.569h-6.695V356.083h-11.543v-6.317z" fill="#395B96"/><path d="M620.66 296.752c.025 1.814-2.824 1.814-2.796 0-.025-1.813 2.824-1.813 2.796 0zM619.383 301.958c.025 1.813-2.824 1.813-2.795 0-.026-1.814 2.823-1.814 2.795 0z" fill="#F4D4BE"/><path d="M541.62 346.975h63.327l-12.61-46.415h-62.943l12.226 46.415z" fill="#163260"/><path d="M541.623 346.746h63.324v3.151h-63.324v-3.151z" fill="#234270"/><path d="M591.388 300.56h2.264l12.349 46.186h30.054v3.151h-32.163v-2.818l-12.504-46.519z" fill="#0B274F"/><path d="M640.635 304.26c7.883 6.346 25.625 19.762 19.629 30.481-7.642 4.36-21.303 4.173-31.6 5.637-2.97.206-3.389 4.691-.556 5.472 9.706 2.868 19.794 4.666 30.012 4.135 4.621-.333 9.662-1.359 13.2-4.779 4.71-4.714 7.461-11.812 6.965-18.526-1.435-16.156-13.845-28.546-26.181-37.604-10.351-7.94-21.986 7.492-11.466 15.181l-.003.003z" fill="#F99370"/><path d="M637.503 348.569c-1.445-.365-3.281-.988-4.64-1.394 0 0 2.064-3.51-.972-7.102 47.185-14.74.05-26.669-1.878-59.315 34.37-12.787 93.022 82.411 7.49 67.811z" fill="#3A72AA"/><path d="M611.979 346.746s3.294-9.973 16.974-6.378l2.642 6.387-19.619-.009h.003z" fill="#F99370"/><path d="M612.713 346.549c.406-.013 3.675-3.503 8.55-4.008a.382.382 0 0 0 .34-.419c-2.347-1.506-11.317 4.452-8.89 4.427zM616.391 346.686c3.684-1.372 4.011-1.579 6.73-2.1a8.556 8.556 0 0 0-.13-.752c-1.906.393-4.129 1.089-6.67 2.086-.442.092-.378.772.073.762l-.003.004z" fill="#E57D61"/><path d="M610.75 282.746c1.346 2.392 6.94 1.502 4.284 6.527-.762 1.388.871 3.595 3.088 2.356 2.217-1.238 2.569-1.295 3.16-1.121.591.178.648 2.652 3.065 2.417 2.417-.235 1.652-3.935 3.065-4.942 1.414-1.01 4.618 2.173 7.172-.654 0 0 1.706-2.395-1.112-5.558-1.149-1.925-13.279-.184-15.328-.263 0 0-3.132-.763-7.394 1.241v-.003z" fill="#F4D4BE"/><path d="m618.122 278.052.022 3.452 3.078 6.448 8.791-7.194s-.546-4.027-.327-5.723l-11.567 3.017h.003z" fill="#F99370"/><path d="M618.122 278.052c2.509.029 7.658-.292 11.567-3.017a35.1 35.1 0 0 1-.193-1.083c-.763-3.497-.979-6.629-1.099-8.645-.118-3.802.289-5.311-2.271-7.601-3.408-2.899-9.192-.66-9.656 3.869-.244 2.166.553 9.236 1.655 16.477h-.003z" fill="#E57D61"/><path d="M609.838 273.431c4.79 3.3 11.184 3.246 15.913 1.226.267-.114.54-.229.794-.356 10.154-4.935 9.973-21.943 3.904-29.807-3.796-5.367-11.946-7.495-17.346-3.379-3.729 3.017-4.478 7.565-5.466 12.386-.33 1.271-1.108 2.992-1.96 4.228-3.243 4.849-2.004 11.23 4.158 15.705l.003-.003z" fill="#F99370"/><path d="M621.425 249.414c9.135 1.115 9.516 8.254 9.516 8.254l2.703-4.287-9.783-11.678-7.883-2.132c-1.757.575-3.253 1.642-4.425 3.081 0 0 .737 5.647 9.872 6.762z" fill="#E57D61"/><path d="M613.11 241.112c-.213-8.08 15.471-24.77 31.666-6.521 11.806 14.588 39.125 27.953 19.645 41.025-7.753 2.957.016 9.372-4.465 14.248-4.482 4.875-12.172 2.572-10.72 11.884 1.455 9.312-3.996 12.565-10.501 13.282-6.505.718-17.31-15.14-11.091-22.508 6.222-7.368-.915-10.967 1.089-19.523 2.005-8.559 5.759-10.77 5.759-10.77l-2.894-7.07c-1.966-9.22-17.367-5.396-18.491-14.044l.003-.003z" fill="#8C4225"/><path d="M636.051 348.162c-1.076-.32-2.255-.708-3.188-.987 0 0 2.064-3.51-.972-7.102 0 0 1.515-.492 3.668-1.251 0 0 3.713 4.761.496 9.34h-.004z" fill="#23659B"/><path d="M635.486 339.676c8.309-2.963 26.458-9.899 13.067-24.185-.356-.384-.959.162-.597.552.082.089 8.16 8.979 2.868 14.073-6.102 6.533-17.672 8.598-15.338 9.56zM642.324 349.792c.474.012.553-.724.08-.807-3.434-.673-6.543-1.772-6.572-1.782-2.296.601 2.98 1.846 6.496 2.589h-.004z" fill="#23659B"/><path d="M636.563 260.095c-1.255 5.698-8.068 4.307-6.988-1.426 1.255-5.695 8.068-4.307 6.988 1.426z" fill="#F99370"/><path d="M634.714 261.276a.286.286 0 0 1-.222-.362c1.032-3.071-.229-4.262-2.316-3.43-.339.143-.559-.4-.212-.53 2.375-.991 4.338.505 3.074 4.125a.285.285 0 0 1-.327.2l.003-.003z" fill="#C16256"/><path d="M632.043 260.895c-.746-.159.829-2.788 3.005-2.973a.288.288 0 0 1 .305.264.284.284 0 0 1-.264.305c-2.271.248-2.42 2.392-3.046 2.401v.003z" fill="#C16256"/><path d="M633.066 264.732a1.277 1.277 0 1 1 0-2.555 1.277 1.277 0 0 1 0 2.555z" fill="#F4D4BE"/><path d="M447.947 136.176v339.192c0 15.556-12.829 28.162-28.653 28.162H260.233c-11.53 0-21.468-6.695-26.013-16.344a27.658 27.658 0 0 1-2.64-11.821V136.176c0-15.552 12.826-28.161 28.653-28.161h159.061c15.824 0 28.653 12.609 28.653 28.161zm-12.295 20.321H243.875v298.548h191.78V156.5l-.003-.003z" fill="#1D3F70"/><path d="M307.037 133.998c-.022 4.84-7.511 4.84-7.533 0 .022-4.841 7.511-4.841 7.533 0z" fill="#306599"/><path d="M363.079 136.402h-46.627a1.387 1.387 0 0 1-1.398-1.375c.08-1.118-.429-3.472 1.398-3.44h46.627c1.788-.035 1.365 2.322 1.397 3.44 0 .759-.626 1.375-1.397 1.375z" fill="#255084"/><path d="M419.294 108.015c-168.396 0-187.714 48.485-187.714 48.485-1.292-22.353-.247-47.015 28.653-48.482h159.061v-.003z" fill="#255084"/><path d="M243.872 156.5h191.78v311.49h-191.78V156.5z" fill="#D7DEFF"/><path d="M213.257 197.143v75.237c0 6.32 5.126 11.443 11.447 11.443h168.987c6.321 0 11.447-5.126 11.447-11.443v-75.237c0-6.323-5.13-11.446-11.447-11.446H224.704c-6.324 0-11.447 5.126-11.447 11.446z" fill="#9DB3EA"/><path d="M213.257 197.143v75.237c0 6.32 5.126 11.443 11.447 11.443h168.987c6.321 0 11.447-5.126 11.447-11.443 0 0-180.437 10.642-180.437-86.686-6.324 0-11.447 5.126-11.447 11.446l.003.003z" fill="#8A9EDD"/><path d="M298.465 215.596h87.399a2.465 2.465 0 1 0 0-4.929h-87.399a2.465 2.465 0 1 0 0 4.929zM298.465 237.228h87.399a2.465 2.465 0 0 0 0-4.93h-87.399a2.465 2.465 0 0 0 0 4.93zM298.465 258.859h87.399a2.465 2.465 0 1 0 0-4.929h-87.399a2.465 2.465 0 1 0 0 4.929z" fill="#fff"/><path d="M285.5 321.735h168.99c6.322 0 11.447 5.125 11.447 11.446v75.24c0 6.322-5.125 11.446-11.447 11.446H285.5c-6.322 0-11.447-5.124-11.447-11.446v-75.24c0-6.321 5.125-11.446 11.447-11.446z" fill="#9DB3EA"/><path d="M419.704 379.44c-10.892 0-19.722-8.829-19.722-19.72 0-10.891 8.83-19.72 19.722-19.72 10.891 0 19.721 8.829 19.721 19.72 0 10.891-8.83 19.72-19.721 19.72z" fill="#D448EB"/><path d="M407.989 363.997h12.076a2.28 2.28 0 0 0 2.281-2.28V349.13a2.28 2.28 0 0 0-4.561 0v10.306h-9.796a2.28 2.28 0 0 0 0 4.561z" fill="#fff"/><path d="M274.053 333.181v75.237c0 6.323 5.126 11.446 11.447 11.446h168.99c6.32 0 11.447-5.126 11.447-11.446 0 0-180.437 9.312-180.437-86.686-6.324 0-11.447 5.126-11.447 11.446v.003z" fill="#8A9EDD"/><path d="M292.465 351.634h87.399a2.465 2.465 0 1 0 0-4.929h-87.399a2.465 2.465 0 1 0 0 4.929zM292.465 373.266h87.399a2.465 2.465 0 0 0 0-4.93h-87.399a2.465 2.465 0 1 0 0 4.93zM292.465 394.897h87.399a2.465 2.465 0 1 0 0-4.929h-87.399a2.465 2.465 0 1 0 0 4.929z" fill="#fff"/><path d="M486.627 220.455h67.481a8.461 8.461 0 0 1 8.462 8.461v28.13a8.461 8.461 0 0 1-8.462 8.461h-67.481a8.462 8.462 0 0 1-8.462-8.461v-28.13a8.462 8.462 0 0 1 8.462-8.461z" fill="#7689D6"/><path d="M562.57 257.046a8.462 8.462 0 0 1-8.462 8.461h-3.452v12.075l-16.304-12.075H486.63a8.461 8.461 0 0 1-8.462-8.461v-28.133c31.858 31.858 84.405 28.133 84.405 28.133h-.003z" fill="#677CC1"/><path d="M509.076 234.207h44.947a2.345 2.345 0 0 0 0-4.688h-44.947c-3.049.01-3.074 4.672 0 4.685v.003zM535.89 245.323h18.133c3.058-.012 3.068-4.672 0-4.684H535.89c-3.059.012-3.069 4.672 0 4.684zM486.716 245.323h38.276a2.344 2.344 0 0 0 0-4.688h-38.276c-3.053.013-3.075 4.672 0 4.685v.003zM516.956 256.442h37.067c3.052-.012 3.074-4.671 0-4.684h-37.067c-3.052.013-3.074 4.672 0 4.684z" fill="#fff"/><path d="M490.575 220.455c56.889 0 70.108 9.487 71.995 11.161.702-5.616-2.328-11.116-8.462-11.158h-63.536l.003-.003z" fill="#8A9EDD"/><path d="m99.656 501.986-20.41.273c0-2.521.207-3.436 1.325-5.389 4.1-5.444-.794-29.782-.655-36.143-.95-1.741 17.727-.372 18.022-.785.423 0 .753.359.721.778l-2.21 27.813c-.991 5.281 3.068 8.473 3.207 13.45v.003zM175.037 504.409h-33.594a2.675 2.675 0 0 1-2.668-2.817c.038-.74.124-1.613.298-2.604.486-2.798.689-5.634.639-8.47a47.421 47.421 0 0 0-.245-4.072l-2.417-23.566a2.667 2.667 0 0 1 2.655-2.938h14.827a2.667 2.667 0 0 1 2.649 2.998l-2.697 21.47c-.591 4.697 2.44 9.08 7.042 10.224 3.278.816 6.606 1.302 8.989 1.915.308.082.613.162.908.248h.003c2.525.721 4.612 1.664 5.819 3.433 1.207 1.772-.057 4.176-2.208 4.176v.003z" fill="#F99370"/><path d="M137.796 500.929c.089 1.645.909 3.522 2.815 3.48h34.846c1.801 0 3.077-1.8 2.439-3.48-1.353-3.799-6.159-9.462-22.624-10.389-2.363.228-7.756 1.035-15.56-.022 0 0-2.678 4.205-1.916 10.411zM81.917 504.409h14.894c1.874 0 3.385-1.553 3.306-3.42v-.06c-.187-4.091-1.918-10.329-10.748-10.411-8.859-.077-10.574 6.269-10.752 10.411v.073c-.073 1.864 1.44 3.407 3.307 3.407h-.007z" fill="#103663"/><path d="M167.148 499.699a.737.737 0 0 1-.686-1.016c1.591-3.913 4.558-5.12 4.681-5.17a.74.74 0 0 1 .547 1.375c-.102.041-2.516 1.051-3.856 4.351a.743.743 0 0 1-.686.46zM161.396 499.004a.741.741 0 0 1-.709-.956c1.366-4.405 5.124-6.397 5.282-6.479a.74.74 0 1 1 .683 1.312c-.035.015-3.373 1.807-4.551 5.605a.74.74 0 0 1-.709.521l.004-.003zM154.846 498.203a.733.733 0 0 1-.698-.981c1.55-4.456 5.04-6.8 5.189-6.898a.74.74 0 0 1 .82 1.232c-.032.022-3.227 2.182-4.609 6.152a.742.742 0 0 1-.699.495h-.003zM84.023 494.939a.74.74 0 0 1-.375-1.379c4.997-2.922 11.231-.152 11.495-.035a.74.74 0 1 1-.613 1.347c-.057-.025-5.81-2.566-10.132-.035a.73.73 0 0 1-.375.102z" fill="#E8C0A6"/><path d="M177.893 500.929h-40.1c.146 1.222.486 2.41 1.099 3.48h36.562c1.775 0 3.049-1.746 2.458-3.42a.484.484 0 0 0-.022-.06h.003zM81.917 504.409h14.894c1.874 0 3.385-1.553 3.306-3.42v-.06H78.614v.073c-.073 1.864 1.439 3.407 3.307 3.407h-.004z" fill="#0F2E54"/><path d="M76.2 485.43s16.79 3.852 25.442-.286c0 0 .359-2.068.981-5.762 3.669-21.698 13.026-85.752 20.055-125.617 0 0 6.863 62.015 11.037 125.617.226 3.424.349 5.473.333 5.762 0 0 2.071.692 5.133 1.311 5.451 1.106 14.026 1.979 19.569-1.721 0 0 .213-1.883.562-5.352 2.506-24.887 9.805-91.192-4.513-168.89 0 0-42.4 9.931-73.65 1.01 0 0-6.445 66.277-4.768 167.877.06 3.602-.13 5.749-.18 6.047v.004z" fill="#1D3F70"/><path d="M152.289 482.212c-.022 0-.047 0-.069-.003a.994.994 0 0 1-.925-1.064c6.311-89.792-6.86-173.429-6.994-174.264a1.002 1.002 0 0 1 .829-1.144 1.002 1.002 0 0 1 1.144.829c.133.836 13.34 84.701 7.013 174.719a.998.998 0 0 1-.994.927h-.004zM89.413 482.212h-.041a.997.997 0 0 1-.956-1.038c3.878-92.317 17.774-174.395 17.914-175.214.092-.543.61-.902 1.153-.817a.997.997 0 0 1 .816 1.15c-.14.816-14.014 82.776-17.885 174.96a.997.997 0 0 1-.998.956l-.003.003z" fill="#103663"/><path d="M76.2 485.43s16.79 3.852 25.442-.286c0 0 .359-2.068.981-5.762 0 0-12.622 2.754-26.242 0 .162 3.599-.13 5.749-.18 6.048z" fill="#103663"/><path d="M134.662 223.437c12.536 13.387 19.867 30.722 25.504 47.866 4.822 16.591 13.007 32.694 25.591 44.756 4.05 3.059-.483 9.532-4.71 6.711-7.83-5.034-14.592-11.538-20.646-18.579-16.56-18.593-22.735-45.236-42.754-60.932-.01.019.079.086.092.101-12.981-11.128 3.852-30.931 16.926-19.923h-.003z" fill="#F99370"/><path d="M177.963 307.316s-.54 4.808-7.213 7.638c0 0-1.29-.911-3.405-2.569a156.971 156.971 0 0 1-5.899-4.875c-5.008-4.358-11.285-10.364-16.837-17.332-.114-.133-.219-.273-.327-.407-3.516-4.452-6.727-9.283-9.122-14.32a50.87 50.87 0 0 1-2.261-5.555c-8.09-24.039-4.082-50.775-4.082-50.775s14.401 3.351 22.084 21.076c7.16 16.503 17.104 49.724 25.283 64.229a41.167 41.167 0 0 0 1.779 2.89z" fill="#CE4ABF"/><path d="M129.262 169.013s3.853-1.251 5.342 2.243c1.49 3.493-1.27 5.138.801 8.362s3.582 4.03 2.337 6.482c-1.245 2.452-3.293 2.354-3.052 5.777 0 0-7.959-11.246-8.131-17.306-.172-6.06 2.7-5.558 2.7-5.558h.003z" fill="#662948"/><path d="M161.446 307.513c-5.008-4.358-11.285-10.364-16.837-17.332l-2.652-52.448s11.123 15.692 16.069 39.414c3.284 15.766 3.586 25.567 3.42 30.366z" fill="#A523A2"/><path d="M122.395 216.869c.127-.943.203-1.962.245-3.03.244-6.158-.715-13.79-1.214-16.645-.136-.772-.238-1.194-.273-1.143a5.735 5.735 0 0 0-.156-.534c-.663-2.071-2.064-3.325-3.69-3.884h-.003c-2.408-.823-5.302-.127-7.071 1.693-.038.038-.07.076-.105.114-1.118 1.207-1.746 2.877-1.448 4.916.016.093.026.188.045.283.022.13.047.254.076.381.295-.197 1.124 7.829 1.134 13.654 0 1.918-.089 3.601-.315 4.672-11.958 3.582 24.009 15.368 12.778-.477h-.003z" fill="#F99370"/><path d="M108.677 198.36c.016.092.025.187.044.282.023.13.048.254.077.381.295-.197 1.124 7.829 1.134 13.654 5.479 2.49 11.59 1.394 12.708 1.166.244-6.159-.715-13.791-1.214-16.646-.149-.67-.254-1.061-.273-1.143a5.735 5.735 0 0 0-.156-.534 6.335 6.335 0 0 0-3.69-3.884h-.003a6.336 6.336 0 0 0-3.821-.26 6.31 6.31 0 0 0-3.25 1.953c-.038.038-.07.076-.105.114a6.344 6.344 0 0 0-1.448 4.917h-.003z" fill="#E57D61"/><path d="M130.034 209.552c-5.387 3.706-12.594 3.665-17.92 1.391-2.227-.905-4.209-2.258-5.718-4.1h-.006c-17.015-25.034 18.225-54.901 25.651-21.743 2.824 9.185 9.459 15.896-2.007 24.452z" fill="#F99370"/><path d="M130.475 179.678s-3.513 1.611-6.562-.041c-3.052-1.652-4.548-.883-4.958 1.731-.406 2.611-4.993.93-5.787 2.039-.791 1.108-.594 3.551-1.963 4.92-1.369 1.368-7.083 2.274-7.083 2.274l-.136 5.853s.308 8.194 3.401 11.456a12.347 12.347 0 0 1-.987-1.07h-.007c-1.292-1.563-2.242-3.427-2.919-5.587a25.907 25.907 0 0 1-.524-2.004 31.9 31.9 0 0 1-.527-3.271 83.305 83.305 0 0 1-.181-1.868c-.022-.445 7.061-19.917 8.557-20.92.085-.051 18.457 3.379 18.939 4.322.197.388.648 1.919.74 2.16l-.003.006z" fill="#E57D61"/><path d="M81.152 311.505s-2.738 2.239-.648 6.276c2.738 5.291 39.328 12.027 47.087 10.795 2.36-.375 4.126-4.983 4.282-6.93 0 0 3.795 5.853 7.499 5.583 3.687-.27 14.992-6.676 16.262-11.055 1.27-4.383.356-6.838.356-6.838l-74.838 2.172v-.003z" fill="#E8C0A6"/><path d="M81.152 311.505c.597 3.481 29.386 9.147 43.447 7.908 22.393-1.972 25.864-5.796 30.203-8.921 5.199-3.745 3.43-16.255-.492-35.381-3.31-16.166-8.633-32.535-14.548-40.888a67.193 67.193 0 0 0-10.271-11.44c-3.647-3.233-6.429-5.053-7.09-5.91.092.374 2.456 10.207-12.784.47l-4.688.835c-20.776 21.813-29.443 60.357-23.78 93.324l.003.003z" fill="#CE4ABF"/><path d="M129.732 177.519s3.383-2.833.972-5.866c-2.411-3.034-1.512-6.705-5.619-6.861-4.107-.155-5.685.038-9.789-1.969-4.103-2.007-8.582 1.439-8.947 4.215-.365 2.772-6.181 1.645-7.766 5.186s-.934 4.821-1.245 6.428c-.311 1.607-5.793 2.725-5.546 6.749.248 4.024 3.58 4.059 3.72 6.638.142 2.576-2.567 6.422 0 8.356 3.811 2.868 7.959.867 7.959.867s-3.313-11.1 2.03-12.246c2.601-.559 5.231-1.48 5.072-5.231-.156-3.751 4.933-1.61 6.537-3.221 1.604-1.613 1.137-4.011 3.538-4.059 2.401-.047 3.386 3.018 9.081 1.017l.003-.003z" fill="#662948"/><path d="m172.35 265.872-15.195.6 9.373-28.743 15.195-.597-9.373 28.74z" fill="#163356"/><path d="m165.21 236.411 1.318 1.318-9.373 28.743-1.321-1.321 9.376-28.74z" fill="#2E619E"/><path d="m180.405 235.811 1.318 1.321-15.195.597-1.318-1.318 15.195-.6z" fill="#2E619E"/><path d="M158.81 259.177c3.901-2.506 7.699-5.59 10.158-9.573a1.137 1.137 0 0 1 1.581-.419c1.512 1.363-.867 3.503-1.451 4.879-1.817 2.134-7.918 11.379-10.84 8.181-.782-.966-.515-2.436.552-3.068z" fill="#F99370"/><path d="M160.484 260.285c4.498-1.505 8.226-4.926 10.625-8.975.317-.584 1.067-.8 1.629-.429 2.106 3.252-7.604 12.368-10.904 13.311-3.472 2.109-5.403-3.77-1.353-3.907h.003z" fill="#F99370"/><path d="M161.002 262.747c4.402-1.899 8.534-4.758 11.472-8.585a1.139 1.139 0 0 1 1.63-.241c1.645 3.414-8.424 10.97-11.362 12.577-2.502 1.381-4.418-2.735-1.737-3.754l-.003.003z" fill="#F99370"/><path d="M161.065 265.351c4.174-1.327 8.255-3.659 10.901-7.222a1.14 1.14 0 0 1 1.633-.276c1.534 2.134-3.18 5.815-4.631 7.304-2.008 1.649-4.171 3.043-6.553 4.104-2.642 1.143-4.138-3.183-1.346-3.91h-.004z" fill="#F99370"/><path d="M152.118 265.951s1.417-6.221 6.473-8.032c5.057-1.81 5.93-2.483 5.93-2.483l7.264 6.806s-4.44 6.295-13.473 10.763l-6.194-7.05v-.004z" fill="#F99370"/><path d="M152.118 265.951s2.306-9.667 7.435-12.24l-1.432 4.396-6.003 7.848v-.004z" fill="#F99370"/><path d="M112.924 240.531c-3.583 10.455-9.272 27.688-3.609 37.762 13.426 11.92 31.461-1.391 41.631-11.744 4.05-6.219 12.876-1.439 9.052 5.027-2.925 4.107-6.213 7.893-9.827 11.421-15.589 16.398-42.186 23.375-57.909 3.243-9.687-15.664-7.276-35.149-4.678-52.357 4.323-17.09 29.91-10.401 25.343 6.651l-.003-.003z" fill="#F99370"/><path d="M152.118 281.457a45.979 45.979 0 0 1-3.402 4.103c-11.488 12.355-31.616 21.051-48.732 10.459-18.965-11.732-23.117-37.172-18.873-54.012 5.406-21.438 23.824-23.829 23.824-23.829s12.467 9.88 12.683 17.401c.216 7.524-6.759 18.167-3.729 34.317 2.325 12.374 19.839 6.52 27.909 3.106 2.468-1.045 4.05-1.861 4.05-1.861.807 8.089 6.27 10.316 6.27 10.316z" fill="#CE4ABF"/><path d="M104.932 218.181c.099.966.486 1.874 1.077 2.725.829 1.207 2.071 2.296 3.481 3.259 4.634 3.166 11.123 4.961 11.123 4.961l1.788-5.285c2.297.565 4.317 3.776 4.317 3.776 1.877-1.725 2.592-3.417 2.776-4.831.282-2.153-.674-3.662-.674-3.662-3.001-3.011-6.419-2.255-6.419-2.255s0 .004.003.007c.093.374 2.456 10.207-12.784.47-1.785-.826-4.688.835-4.688.835z" fill="#E8C0A6"/><path d="M197.071 317.269c-.851 1.814-4.037.035-5.733.674 1.604 2.236 3.884 3.967 3.884 3.986a95.562 95.562 0 0 0 9.373 3.938c3.002 4.129-8.791-.537-10.253-.781l-.028.047c2.757 2.227 5.647 4.291 8.706 6.079 2.112 4.993-9.405-3.084-10.783-3.802-.007.007-.013.01-.023.016a41.27 41.27 0 0 0 7.525 6.787c1.686 5.254-9.351-3.916-10.431-5.046a.673.673 0 0 0-.038.019c1.429 2.29 3.167 4.386 5.003 6.368.908 5.196-7.49-4.243-8.335-5.387-.864-.435-5.269-4.208-7.969-9.731-.886-1.81 4.399-6.978 6.089-6.015 1.267.724 4.853.682 5.733.901 2.036.204 6.635-.295 7.286 1.944l-.006.003z" fill="#F99370"/><path d="M152.118 281.457a45.979 45.979 0 0 1-3.402 4.103c-8.125-3.611-6.946-12.358-6.914-12.555 2.468-1.045 4.049-1.861 4.049-1.861.807 8.09 6.27 10.316 6.27 10.316l-.003-.003zM177.963 307.316s-.54 4.808-7.213 7.638c0 0-1.29-.911-3.405-2.569 0 0 5.917-1.858 8.842-7.959a41.167 41.167 0 0 0 1.779 2.89h-.003z" fill="#A523A2"/><path d="M123.853 277.804c-1.995 0-3.837-.225-5.339-.778-7.909-2.922-5.613-21.536-5.511-22.327a.661.661 0 0 1 1.312.168c-.023.184-2.271 18.361 4.656 20.921 7.197 2.658 23.66-3.103 23.825-3.164a.656.656 0 0 1 .842.404.659.659 0 0 1-.404.841c-.556.197-11.24 3.935-19.381 3.935z" fill="#A523A2"/><path d="M116.786 301.059c-1.344 0-2.71-.079-4.104-.254-13.175-1.639-21.17-10.135-25.559-16.973-4.732-7.378-6.346-14.263-6.413-14.552a.66.66 0 1 1 1.287-.296c.016.07 1.639 6.985 6.26 14.172 6.159 9.582 14.433 15.08 24.587 16.34 20.874 2.592 36.333-16.312 36.485-16.505a.66.66 0 0 1 1.029.825c-.149.185-14.093 17.243-33.575 17.243h.003z" fill="#A523A2"/><path d="M100.158 191.896c.286 2.916 2.421 5.092 4.768 4.86 2.344-.232 4.015-2.783 3.726-5.695-.286-2.915-2.421-5.091-4.768-4.859-2.344.232-4.015 2.782-3.726 5.694z" fill="#F99370"/><path d="M102.271 193.529a.346.346 0 0 1-.356-.28c-.448-2.378-.191-3.944.768-4.652 1.299-.96 3.313.079 3.399.123a.34.34 0 0 1 .143.461.338.338 0 0 1-.461.143c-.016-.01-1.721-.886-2.674-.178-.718.534-.893 1.906-.502 3.976a.343.343 0 0 1-.273.401c-.016 0-.029.003-.044.006z" fill="#C16256"/><path d="M105.498 193.405a.344.344 0 0 1-.347-.241c-.006-.026-.813-2.608-2.976-2.992a.339.339 0 0 1-.276-.397.338.338 0 0 1 .397-.276c2.579.46 3.475 3.344 3.51 3.468a.34.34 0 0 1-.308.438z" fill="#C16256"/><path d="m388.782 393 7.96-18.92-.12-.28h-7V369h8.64c2.32.987 3.48 2.56 3.48 4.72 0 1.173-.293 2.507-.88 4-.16.453-.293.827-.4 1.12a26.2 26.2 0 0 1-.52 1.28c-.24.533-.413.933-.52 1.2-.453 1.04-.88 2-1.28 2.88l-3.6 8.16h7V397h-12.76v-4zm24.966-24-6.44 17.2h5.92v-7.28h5.2V397h-5.2v-5.8h-7.4c-2.32-1.2-3.48-3.053-3.48-5.56 0-1.147.64-3.32 1.92-6.52l4-10.12h5.48zm6.941 28 8.88-28h5.32l-9.04 28h-5.16zm16.061 0 8.04-23.2h-8.4V369h14.28v3.72L442.39 397h-5.64z" fill="#fff"/></g><path d="M273.938 218.062a19.87 19.87 0 0 1-7.014 4.344c-2.758.487-10.391-3.053-14.153.561-.627.627-1.401 1.254-2.212 1.881-1.77-.775-4.499-1.955-6.49-3.098-1.991-1.143-7.007-3.688-7.007-3.688L226 230.969s2.729 3.687 4.425 6.121c1.106 1.622 2.471 4.093 3.356 5.753l-1.254 1.474a3.235 3.235 0 0 0 .553 3.688 3.072 3.072 0 0 0 3.695-.007 2.286 2.286 0 0 0 .284 3.248 3.668 3.668 0 0 0 3.709-.007 2.973 2.973 0 0 0-.011 3.706 3.735 3.735 0 0 0 3.29-.421 3.03 3.03 0 0 0 .689 3.364 4.026 4.026 0 0 0 3.887-.34l1.903-1.722a9.596 9.596 0 0 0 6.792 2.806l.225-.003a4.833 4.833 0 0 0 4.034-2.917c.538.206 1.15.346 1.799.346.871 0 1.678-.25 2.361-.682 2.157-1.427 1.64-2.533 1.64-2.533a3.947 3.947 0 0 0 4.532-1.029 3.67 3.67 0 0 0 .509-4.48c.024.014.051.02.078.018a4.125 4.125 0 0 0 3.606-2.116 5.763 5.763 0 0 0-.704-5.458l.011.019c3.024-.59 2.913-2.102 4.388-4.315a17.428 17.428 0 0 1 5.114-4.454l-10.973-12.966zm-.185 26.034c-1.622 1.623-2.876.922-5.642-1.18-2.765-2.102-8.26-6.047-8.26-6.047a5.833 5.833 0 0 0 1.479 2.88c1.176 1.323 4.679 4.347 6.339 5.896 1.032.959 3.687 2.876 2.139 4.351-1.549 1.475-2.766 0-5.311-2.065-2.544-2.065-8.223-7.154-8.223-7.154a3.464 3.464 0 0 0 .996 2.656c.627.737 4.13 4.13 5.605 5.678 1.475 1.549 2.766 2.471 1.512 3.688s-3.798-.701-5.199-2.139c-2.176-2.102-6.491-6.011-6.491-6.011l-.003.196c0 1.047.361 2.006.97 2.765 1.062 1.394 3.127 3.201 4.38 4.602 1.254 1.402 1.992 2.582 0 3.688-1.991 1.106-4.941-1.623-6.232-2.95v-.007a1.51 1.51 0 0 0-.368-.992 3.31 3.31 0 0 0-3.341-.694 2.25 2.25 0 0 0 .561-2.569 2.241 2.241 0 0 0-.539-.757 2.783 2.783 0 0 0-3.363.004 2.254 2.254 0 0 0 .687-1.827 2.247 2.247 0 0 0-1-1.676 3.689 3.689 0 0 0-4.33.295 2.437 2.437 0 0 0-.25-3.36 3.675 3.675 0 0 0-4.374-.471l-2.452-4.142c-1.696-2.691-3.687-5.494-3.687-5.494l8.407-10.214s2.987 1.843 5.458 3.245c1.217.7 3.318 1.622 4.904 2.36-2.508 1.88-4.609 3.687-3.982 4.941a6.764 6.764 0 0 0 7.695.133 8.877 8.877 0 0 1 4.953-1.486c1.279 0 2.496.265 3.599.748 2.043 1.379 5.804 4.772 9.233 6.911 4.314 3.134 5.163 5.162 4.13 6.195v.003z" fill="#48EB93"/><defs><clipPath id="a"><path fill="#fff" transform="matrix(-1 0 0 1 729 3)" d="M0 0h716v559H0z"/></clipPath></defs></svg>